<?xml version="1.0" encoding="UTF-8" standalone="no"?>
<!-- Created with Inkscape (http://www.inkscape.org/) -->

<svg
   xmlns:dc="http://purl.org/dc/elements/1.1/"
   xmlns:cc="http://creativecommons.org/ns#"
   xmlns:rdf="http://www.w3.org/1999/02/22-rdf-syntax-ns#"
   xmlns:svg="http://www.w3.org/2000/svg"
   xmlns="http://www.w3.org/2000/svg"
   xmlns:sodipodi="http://sodipodi.sourceforge.net/DTD/sodipodi-0.dtd"
   xmlns:inkscape="http://www.inkscape.org/namespaces/inkscape"
   width="92.869949mm"
   height="130.08391mm"
   viewBox="0 0 329.06675 460.92723"
   id="svg4766"
   version="1.1"
   inkscape:version="0.91 r13725"
   sodipodi:docname="CSS3.svg">
  <defs
     id="defs4768" />
  <sodipodi:namedview
     id="base"
     pagecolor="#ffffff"
     bordercolor="#666666"
     borderopacity="1.0"
     inkscape:pageopacity="0.0"
     inkscape:pageshadow="2"
     inkscape:zoom="0.35"
     inkscape:cx="-303.35542"
     inkscape:cy="190.8929"
     inkscape:document-units="px"
     inkscape:current-layer="layer1"
     showgrid="false"
     fit-margin-top="0"
     fit-margin-left="0"
     fit-margin-right="0"
     fit-margin-bottom="0"
     inkscape:window-width="1366"
     inkscape:window-height="718"
     inkscape:window-x="0"
     inkscape:window-y="26"
     inkscape:window-maximized="1" />
  <metadata
     id="metadata4771">
    <rdf:RDF>
      <cc:Work
         rdf:about="">
        <dc:format>image/svg+xml</dc:format>
        <dc:type
           rdf:resource="http://purl.org/dc/dcmitype/StillImage" />
        <dc:title></dc:title>
      </cc:Work>
    </rdf:RDF>
  </metadata>
  <g
     inkscape:label="Layer 1"
     inkscape:groupmode="layer"
     id="layer1"
     transform="translate(-172.64113,-262.32786)">
    <g
       id="g5325"
       transform="translate(-45.714287,-71.428572)">
      <path
         style="fill:#e6e6e5"
         d="m 316.35715,776.89678 c -35.75,-9.72355 -65.53512,-17.88772 -66.18915,-18.1426 -0.82313,-0.32077 -5.92872,-51.71309 -16.58706,-166.96341 -8.46885,-91.575 -15.31989,-166.61384 -15.22454,-166.75298 0.0953,-0.13913 74.17416,-0.13913 164.61957,0 l 164.4462,0.25298 -15.36734,166.5 c -8.45203,91.575 -15.4872,166.62054 -15.6337,166.76786 -0.41674,0.41907 -133.75185,36.24535 -134.44592,36.12474 -0.33993,-0.0591 -29.86806,-8.06304 -65.61806,-17.78659 z m 110,-65.63219 c 22,-6.40333 40.06164,-11.71699 40.13698,-11.80812 0.0753,-0.0911 2.56321,-28.1782 5.52861,-62.4157 l 5.39162,-62.25 -47.27861,0 -47.2786,0 0,19.38224 0,19.38224 25,0.73552 c 22.17208,0.65232 24.99689,0.92016 24.97251,2.36776 -0.0151,0.89773 -0.68029,11.53224 -1.47816,23.63224 -0.79786,12.1 -1.46049,23.17033 -1.47251,24.60073 -0.0211,2.5157 -0.61851,2.7683 -18.27184,7.72601 -10.0375,2.8189 -20.6125,5.82851 -23.5,6.68801 l -5.25,1.56273 0,21.52865 c 0,20.03081 0.12175,21.49321 1.75,21.01938 0.9625,-0.28009 19.75,-5.74835 41.75,-12.15169 z m 5.73947,-158.28541 45.73946,-19.68841 -43.73946,-0.29548 c -29.34741,-0.19825 -44.97337,0.0617 -47.48947,0.79014 l -3.75,1.08562 0,19.56685 c 0,18.22312 0.12018,19.52093 1.75,18.89826 0.9625,-0.36772 22.33276,-9.52836 47.48947,-20.35698 z m 49.94508,-38.18841 c 0.9265,-9.075 1.714,-17.7375 1.75,-19.25 l 0.0654,-2.75 -50.5,0 -50.5,0 0,19.50951 0,19.50952 48.75,-0.25952 48.75,-0.25951 1.68455,-16.5 z m -197.18455,-150 0,-31 26.03275,0 26.03275,0 -0.28275,11.25 -0.28275,11.25 -14.25,0.27746 -14.25,0.27745 0,9.47255 0,9.47254 14.5,0 14.5,0 0,10 0,10 -26,0 -26,0 0,-31 z m 72,21 0,-10 10.23213,0 10.23214,0 -10.26928,-10.30435 -10.26928,-10.30434 0.28715,-10.44566 0.28714,-10.44565 25.75,-0.26688 25.75,-0.26689 0,11.51689 0,11.51688 -9.75,0.0314 -9.75,0.0314 9.78311,9.21856 9.7831,9.21856 -0.0331,10.25 -0.0331,10.25 -26,0 -26,0 0,-10 z m 72,0 0,-10 10.25,-0.0434 10.25,-0.0434 -10.27063,-9.70664 -10.27063,-9.70664 0.0206,-11.25 0.0206,-11.25 26,0 26,0 0,11.5 0,11.5 -9.75,0.0257 -9.75,0.0257 9.75,9.53465 9.75,9.53465 0,9.93962 0,9.93962 -26,0 -26,0 0,-10 z"
         id="path5335"
         inkscape:connector-curvature="0" />
      <path
         style="fill:#6aa2d0"
         d="m 316.97306,776.75462 c -35.96125,-9.70379 -65.9477,-18.05288 -66.63654,-18.55355 -0.88069,-0.6401 -5.74764,-49.8869 -16.39654,-165.9103 -8.32926,-90.75 -15.13032,-165.5625 -15.11347,-166.25 0.0244,-0.99479 33.51365,-1.25 164.03064,-1.25 130.51897,0 164.0055,0.25519 164.02693,1.25 0.0865,4.01221 -30.42197,331.37784 -30.9374,331.9687 -0.46845,0.53703 -111.40702,30.80868 -130.58953,35.63379 -2.33239,0.58668 -17.5504,-3.17167 -68.38409,-16.88864 z m 108.24435,-64.63836 c 22.07686,-6.42098 40.50485,-11.98359 40.9511,-12.36136 0.44624,-0.37776 3.00943,-26.06173 5.69597,-57.07549 2.68654,-31.01375 5.15577,-58.97172 5.48719,-62.12882 l 0.60257,-5.74018 -47.29854,-0.25982 -47.29855,-0.25982 48.75,-20.93859 c 36.71389,-15.76897 48.75,-21.3539 48.75,-22.62071 0,-1.9476 2.75547,-29.86477 3.42402,-34.6907 l 0.45024,-3.25 -102.43713,0 -102.43713,0 0.0118,2.25 c 0.006,1.2375 0.90648,9.42285 2,18.18967 1.09352,8.76683 1.98822,16.52933 1.98822,17.25 0,1.06135 9.3581,1.32927 49.25,1.41001 27.0875,0.0548 50.375,0.42018 51.75,0.81191 l 2.5,0.71223 -2.5,0.67139 c -1.375,0.36927 -23.65,9.63239 -49.5,20.58473 -43.51141,18.43526 -46.99072,20.08801 -46.87492,22.2667 0.0688,1.29435 0.6922,10.34086 1.38534,20.10336 l 1.26025,17.75 70.66206,0 70.66206,0 -0.37341,6.25 c -0.20538,3.4375 -0.9017,15.24148 -1.54739,26.23107 l -1.17399,19.98107 -23.46958,6.59308 -23.46958,6.59307 -22.03042,-5.4753 c -12.11673,-3.01142 -22.1845,-5.59886 -22.37282,-5.74988 -0.25549,-0.20488 -2.86397,-26.69231 -3.11917,-31.67311 -0.0211,-0.4125 -9.2465,-0.75 -20.5008,-0.75 l -20.46238,0 0.56483,6.25 c 0.31066,3.4375 1.53123,17.49628 2.71238,31.24173 l 2.14752,24.99174 40.5,12.17871 c 22.275,6.6983 41.56212,12.21452 42.86026,12.25827 1.29814,0.0437 20.42314,-5.17398 42.5,-11.59496 z M 285.0927,365.04077 l 0.26445,-30.75 25.25,-0.26717 25.25,-0.26717 0,10.98971 0,10.98972 -14.25,0.27745 -14.25,0.27746 -0.28621,9.75 -0.28621,9.75 14.53621,0 14.53621,0 0,10 0,10 -25.51445,0 -25.51445,0 0.26445,-30.75 z m 72.76445,20.75 0,-10 9.73124,0 9.73124,0 -9.73124,-9.76789 -9.73124,-9.76789 0,-11.24928 0,-11.24928 25.25,0.26717 25.25,0.26717 0.28383,10.75 0.28383,10.75 -10.26596,0 -10.26597,0 10.23214,10.26707 10.23213,10.26708 0,9.73293 0,9.73292 -25.5,0 -25.5,0 0,-10 z m 72,0 0,-10 9.73124,0 9.73124,0 -9.73124,-9.76789 -9.73124,-9.76789 0,-11.24928 0,-11.24928 25.25,0.26717 25.25,0.26717 0.28383,10.75 0.28383,10.75 -10.26596,0 -10.26597,0 10.23214,10.26707 10.23213,10.26708 0,9.73293 0,9.73292 -25.5,0 -25.5,0 0,-10 z"
         id="path5333"
         inkscape:connector-curvature="0" />
      <path
         style="fill:#3598d4"
         d="m 315.35715,776.03209 c -35.75,-9.6623 -65.16413,-17.69599 -65.36474,-17.85264 -0.24405,-0.19058 -30.32887,-322.27752 -31.11712,-333.13868 -0.01,-0.1375 73.78186,-0.25 163.98186,-0.25 90.2,0 163.9912,0.1125 163.98045,0.25 -1.0867,13.89431 -30.91079,332.98686 -31.13901,333.16102 -0.97036,0.7405 -132.05385,35.5747 -133.56469,35.49355 -0.97721,-0.0525 -31.02675,-8.00094 -66.77675,-17.66325 z m 109.9815,-63.57718 41.9815,-12.2946 5.21431,-59.43477 c 2.86786,-32.68912 5.23869,-61.11773 5.2685,-63.17468 l 0.0542,-3.73991 -45.68395,-0.26009 -45.68395,-0.26009 46.43395,-19.85532 c 25.53867,-10.92042 46.79029,-20.18676 47.22581,-20.59186 0.67578,-0.62857 4.69818,-34.22514 4.70559,-39.30282 0.002,-1.65536 -5.56791,-1.75 -102.99745,-1.75 -56.65,0 -102.99813,0.3375 -102.99584,0.75 0.002,0.4125 1.12542,9.525 2.49584,20.25 1.37042,10.725 2.49355,19.6125 2.49584,19.75 0.002,0.1375 23.06666,0.28553 51.25416,0.32895 28.1875,0.0434 50.575,0.3257 49.75,0.6273 -2.69808,0.98633 -96.48997,40.58498 -96.87241,40.89923 -0.38204,0.31392 1.42869,25.73565 2.50326,35.14452 l 0.5996,5.25 70.38477,0 70.38478,0 -0.0211,3.25 c -0.0585,9.02282 -3.03225,48.1918 -3.70412,48.78862 -0.42615,0.37854 -10.97537,3.52015 -23.4427,6.98135 l -22.66789,6.29309 -21.69624,-5.60399 c -11.93293,-3.08219 -21.84157,-5.74932 -22.01921,-5.92695 -0.17763,-0.17764 -0.91377,-7.51378 -1.63587,-16.30255 l -1.31287,-15.97957 -20.75,-0.27029 -20.75,-0.27029 0,2.4398 c 0,3.64161 5.00526,60.93938 5.35382,61.28794 0.28378,0.28377 82.58347,25.09203 83.64618,25.21413 0.275,0.0316 19.39168,-5.47512 42.4815,-12.23715 z m -139.4815,-347.16414 0,-30.5 25,0 25,0 0,10.5 0,10.5 -14.5,0 -14.5,0 0,10 0,10 14.5,0 14.5,0 0,10 0,10 -25,0 -25,0 0,-30.5 z m 72,20.5 0,-10 10.25,-0.0364 10.25,-0.0363 -10.27977,-9.71365 -10.27977,-9.71365 0.0298,-10.75 0.0298,-10.75 25,0 25,0 0,10.5 0,10.5 -9.73124,0 -9.73124,0 9.73124,9.76789 9.73124,9.76789 0,10.23211 0,10.23211 -25,0 -25,0 0,-10 z m 72,0 0,-10 9.73124,0 9.73124,0 -9.73124,-9.76789 -9.73124,-9.76789 0,-10.73211 0,-10.73211 25,0 25,0 0,10.5 0,10.5 -9.5,0 c -5.225,0 -9.5,0.35994 -9.5,0.79988 0,0.43993 4.275,4.74651 9.5,9.57017 l 9.5,8.7703 0,10.42983 0,10.42982 -25,0 -25,0 0,-10 z"
         id="path5331"
         inkscape:connector-curvature="0" />
      <path
         style="fill:#1657a6"
         d="m 315.35715,775.98947 c -35.75,-9.66238 -65.14045,-17.66283 -65.31212,-17.77878 -0.17166,-0.11595 -7.01568,-73.04537 -15.20892,-162.06537 -8.19325,-89.02 -15.1558,-163.99205 -15.47233,-166.60455 l -0.57552,-4.75 164.06889,0 164.06889,0 -0.58336,4.75 c -0.32085,2.6125 -7.26942,77.36057 -15.44128,166.10683 -8.17185,88.74625 -15.23733,161.71597 -15.70108,162.15492 -1.05443,0.99806 -131.2904,36.0355 -133.34317,35.87337 -0.825,-0.0652 -30.75,-8.02405 -66.5,-17.68642 z m 122.85714,-25.11469 c 28.52143,-7.68073 52.10868,-14.2165 52.41611,-14.52392 0.45831,-0.45832 25.10936,-277.11703 25.19915,-282.81009 0.026,-1.6494 -3.79522,-1.75 -66.4724,-1.75 l -66.5,0 0,20 0,20 -52,0 c -28.6,0 -52,0.36329 -52,0.80731 0,1.37582 3.94172,33.50435 4.53235,36.94269 l 0.55828,3.25 49.65468,0 c 31.5452,0 49.30637,0.34832 48.69964,0.95505 -0.52528,0.52528 -21.87778,9.79888 -47.45,20.60801 -25.57222,10.80912 -46.66697,19.81386 -46.87721,20.01054 -0.42926,0.40155 1.6529,30.85962 2.50726,36.6764 l 0.5508,3.75 45.9121,0 45.9121,0 0,32.5 c 0,17.875 -0.3375,32.48836 -0.75,32.47413 -1.27641,-0.044 -43.36481,-10.75456 -43.71704,-11.12499 -0.1826,-0.19203 -0.93971,-7.54914 -1.68248,-16.34914 l -1.35048,-16 -20.75,-0.27029 -20.75,-0.27029 0,3.29091 c 0,4.76175 4.91431,59.99732 5.37934,60.46234 0.21528,0.21528 19.00549,5.93875 41.75604,12.71882 l 41.36462,12.3274 0.27047,20.68145 c 0.24945,19.07367 0.40493,20.63974 2,20.14503 0.95124,-0.29502 25.06524,-6.82064 53.58667,-14.50136 z m -152.35714,-385.58401 0,-30.5 25,0 25,0 0,10.5 0,10.5 -14.5,0 -14.5,0 0,10 0,10 14.5,0 14.5,0 0,10 0,10 -25,0 -25,0 0,-30.5 z m 72,20.5 0,-10 10.25,-0.0364 10.25,-0.0363 -10.27977,-9.71365 -10.27977,-9.71365 0.0298,-10.75 0.0298,-10.75 25,0 25,0 0,10.5 0,10.5 -9.73124,0 -9.73124,0 9.73124,9.76789 9.73124,9.76789 0,10.23211 0,10.23211 -25,0 -25,0 0,-10 z m 72,0 0,-10 9.73124,0 9.73124,0 -9.73124,-9.76789 -9.73124,-9.76789 0,-10.73211 0,-10.73211 25,0 25,0 0,10.5 0,10.5 -9.5,0 c -5.225,0 -9.5,0.35994 -9.5,0.79988 0,0.43993 4.275,4.74651 9.5,9.57017 l 9.5,8.7703 0,10.42983 0,10.42982 -25,0 -25,0 0,-10 z"
         id="path5329"
         inkscape:connector-curvature="0" />
      <path
         style="fill:#1b1b1b"
         d="m 285.85715,365.29077 0,-30.5 25,0 25,0 0,10.5 0,10.5 -14.5,0 -14.5,0 0,10 0,10 14.5,0 14.5,0 0,10 0,10 -25,0 -25,0 0,-30.5 z m 72,20.5 0,-10 10.25,-0.0472 10.25,-0.0472 -10.25,-9.81639 -10.25,-9.8164 0,-10.63642 0,-10.63642 25,0 25,0 0,10.5 0,10.5 -9.5,0 c -5.225,0 -9.49977,0.3375 -9.4995,0.75 2.8e-4,0.4125 4.27528,4.71857 9.5,9.56905 l 9.4995,8.81904 0,10.43096 0,10.43095 -25,0 -25,0 0,-10 z m 72,0 0,-10 10.25,-0.0218 10.25,-0.0218 -10.25,-9.56913 -10.25,-9.56913 0,-10.90903 0,-10.90903 25,0 25,0 0,10.5 0,10.5 -10.25,0.0421 -10.25,0.0421 10.25,9.8824 10.25,9.88239 0,10.0755 0,10.07551 -25,0 -25,0 0,-10 z"
         id="path5327"
         inkscape:connector-curvature="0" />
    </g>
  </g>
</svg>
