<?xml version="1.0" encoding="UTF-8" standalone="no"?>
<!-- Created with Inkscape (http://www.inkscape.org/) -->

<svg
   xmlns:dc="http://purl.org/dc/elements/1.1/"
   xmlns:cc="http://creativecommons.org/ns#"
   xmlns:rdf="http://www.w3.org/1999/02/22-rdf-syntax-ns#"
   xmlns:svg="http://www.w3.org/2000/svg"
   xmlns="http://www.w3.org/2000/svg"
   xmlns:sodipodi="http://sodipodi.sourceforge.net/DTD/sodipodi-0.dtd"
   xmlns:inkscape="http://www.inkscape.org/namespaces/inkscape"
   width="29.716396mm"
   height="29.65081mm"
   viewBox="0 0 105.29432 105.06193"
   id="svg10834"
   version="1.1"
   inkscape:version="0.91 r13725"
   sodipodi:docname="High.svg">
  <defs
     id="defs10836" />
  <sodipodi:namedview
     id="base"
     pagecolor="#ffffff"
     bordercolor="#666666"
     borderopacity="1.0"
     inkscape:pageopacity="0.0"
     inkscape:pageshadow="2"
     inkscape:zoom="3.959798"
     inkscape:cx="83.086074"
     inkscape:cy="47.772706"
     inkscape:document-units="px"
     inkscape:current-layer="layer1"
     showgrid="false"
     fit-margin-top="0"
     fit-margin-left="0"
     fit-margin-right="0"
     fit-margin-bottom="0"
     inkscape:window-width="1366"
     inkscape:window-height="718"
     inkscape:window-x="0"
     inkscape:window-y="26"
     inkscape:window-maximized="1" />
  <metadata
     id="metadata10839">
    <rdf:RDF>
      <cc:Work
         rdf:about="">
        <dc:format>image/svg+xml</dc:format>
        <dc:type
           rdf:resource="http://purl.org/dc/dcmitype/StillImage" />
        <dc:title></dc:title>
      </cc:Work>
    </rdf:RDF>
  </metadata>
  <g
     inkscape:label="Layer 1"
     inkscape:groupmode="layer"
     id="layer1"
     transform="translate(-203.16995,-559.56306)">
    <g
       id="g11411"
       transform="translate(-49.750013,-8.8388348)">
      <path
         style="fill:#cecdce"
         d="m 289.21428,671.15783 c -22.84438,-7.81693 -35.93977,-26.48287 -35.98522,-51.29268 -0.0424,-23.12828 15.20138,-43.16401 37.91672,-49.83612 7.11918,-2.0911 22.01782,-2.0911 29.137,0 17.57741,5.16296 31.17316,18.75871 36.33612,36.33612 2.0911,7.11918 2.0911,22.01782 0,29.137 -5.16296,17.57741 -18.75871,31.17316 -36.33612,36.33612 -8.23175,2.41789 -22.95633,2.0954 -31.0685,-0.68044 z m 30.39241,-5.96064 c 17.35962,-5.30409 29.46535,-19.62104 32.4621,-38.3916 2.47215,-15.48463 -5.86742,-34.62747 -19.03686,-43.6976 -12.8355,-8.84015 -27.96307,-11.12726 -41.79115,-6.31833 -17.78164,6.18384 -28.48021,19.08738 -32.02259,38.62244 -1.44235,7.95407 -0.67347,13.5124 3.09902,22.40318 5.57314,13.13444 13.49623,21.15759 25.85153,26.178 11.50857,4.67635 19.1192,4.96779 31.43795,1.20391 z"
         id="path11425"
         inkscape:connector-curvature="0" />
      <path
         style="fill:#b9bdc4"
         d="m 291.31891,671.85113 c -7.58344,-2.0393 -14.56099,-6.05004 -21.21599,-12.19507 -8.91136,-8.22851 -16.17075,-20.95299 -13.67638,-23.97241 2.24445,-2.7169 4.30318,-1.1617 7.28177,5.50079 7.98433,17.85933 29.72741,29.53304 48.81589,26.20893 15.3827,-2.67879 28.67367,-12.50256 35.12336,-25.96079 6.75215,-14.08938 6.74624,-26.9208 -0.0189,-41.03727 -8.62595,-17.99934 -29.73337,-29.22851 -48.72431,-25.92138 -19.63793,3.4198 -35.25359,18.3381 -39.11753,37.37065 -1.13257,5.57863 -1.4722,6.11679 -4.05153,6.41969 l -2.81533,0.33062 0.65798,-5.59837 c 1.33775,-11.3822 7.0633,-22.04863 16.52497,-30.78528 10.43489,-9.63528 21.14164,-13.77759 35.61136,-13.77759 15.48192,0 25.88573,4.35153 37.0171,15.4829 11.13137,11.13137 15.4829,21.53518 15.4829,37.0171 0,15.48192 -4.35153,25.88573 -15.4829,37.0171 -7.75504,7.75504 -14.1684,11.63609 -23.05206,13.94999 -7.30135,1.90176 -21.19433,1.87746 -28.36041,-0.0496 z"
         id="path11423"
         inkscape:connector-curvature="0" />
      <path
         style="fill:#9aa2ad"
         d="m 291.9056,671.93287 c -7.80497,-2.14564 -15.30881,-6.29766 -21.36676,-11.82265 -9.75436,-8.89618 -16.95278,-22.398 -13.20639,-24.77076 2.46503,-1.56123 3.45666,-0.97268 4.79206,2.84419 3.46605,9.90668 12.82782,20.08853 22.81444,24.81296 3.085,1.45944 9.0787,3.37096 13.31931,4.24783 7.09124,1.46631 8.31622,1.46279 15.25885,-0.0438 10.97571,-2.38182 18.2588,-6.18495 25.26899,-13.19515 7.09616,-7.09616 10.95234,-14.5574 13.23897,-25.6158 1.46631,-7.09124 1.46279,-8.31622 -0.0438,-15.25885 -2.38182,-10.97571 -6.18495,-18.2588 -13.19515,-25.26899 -7.01019,-7.0102 -14.29328,-10.81333 -25.26899,-13.19515 -6.94263,-1.50661 -8.16761,-1.51013 -15.25885,-0.0438 -18.8863,3.90527 -31.71112,14.95576 -36.91852,31.81079 -1.10451,3.575 -2.26815,7.7375 -2.58588,9.25 -0.44236,2.1058 -1.15886,2.75 -3.05863,2.75 -2.98993,0 -3.2341,-2.58111 -1.02819,-10.86904 2.51355,-9.44377 6.54066,-16.27762 13.97062,-23.70758 10.74631,-10.74631 21.94981,-15.39964 37.07662,-15.39964 15.12681,0 26.33031,4.65333 37.07662,15.39964 10.74631,10.74631 15.39964,21.94981 15.39964,37.07662 0,15.12681 -4.65333,26.33031 -15.39964,37.07662 -10.91424,10.91424 -22.07119,15.46356 -37.57662,15.32209 -4.675,-0.0426 -10.66391,-0.67242 -13.30868,-1.39949 z"
         id="path11421"
         inkscape:connector-curvature="0" />
      <path
         style="fill:#7a8694"
         d="m 292.48879,671.89461 c -13.75934,-3.70591 -27.12235,-14.2736 -33.15105,-26.21639 -3.61884,-7.16888 -3.8206,-8.8011 -1.25748,-10.17285 1.63905,-0.87719 2.31543,-0.0892 5.56148,6.47867 4.73025,9.57103 11.42768,16.29119 20.80869,20.87933 14.4594,7.07193 28.57763,7.03097 42.88037,-0.1244 13.05308,-6.53019 22.25165,-19.1905 24.96185,-34.35585 2.47988,-13.8766 -2.91655,-30.69241 -13.12599,-40.90185 -10.20944,-10.20944 -27.02525,-15.60587 -40.90185,-13.12599 -19.74275,3.52823 -34.2416,17.39471 -38.66399,36.97764 -1.43955,6.37452 -1.84813,7.10073 -3.99504,7.10073 -2.89644,0 -3.06964,-1.97627 -0.90241,-10.29681 2.38196,-9.14498 7.22969,-17.60716 13.91832,-24.29578 20.58554,-20.58555 53.59964,-20.58555 74.18518,0 28.77146,28.77145 15.2503,77.80305 -24.29578,88.1035 -7.07284,1.84224 -19.08254,1.81919 -26.0223,-0.0499 z"
         id="path11419"
         inkscape:connector-curvature="0" />
      <path
         style="fill:#677587"
         d="m 293.48643,671.99679 c -14.09837,-3.41621 -27.92239,-14.17206 -34.09765,-26.52984 -3.7208,-7.446 -3.85462,-8.59895 -1.16505,-10.03836 1.72962,-0.92567 2.15614,-0.68687 3.06284,1.71482 5.87312,15.55682 17.06024,25.48504 33.55877,29.78236 15.2285,3.96652 32.89922,-1.00399 44.37815,-12.48291 11.47892,-11.47893 16.44943,-29.14965 12.48291,-44.37815 -4.77643,-18.33797 -16.78521,-30.34675 -35.12318,-35.12318 -15.2285,-3.96652 -32.89922,1.00399 -44.37815,12.48291 -6.14593,6.14594 -10.07404,13.43769 -12.7463,23.66099 -1.47751,5.65252 -2.17893,6.90401 -4.01727,7.16777 -2.58718,0.3712 -2.70065,-0.43406 -1.13025,-8.02033 4.9308,-23.81948 27.04157,-41.79922 51.40303,-41.79922 28.57874,0 52.5,23.92126 52.5,52.5 0,33.50961 -32.23218,58.93724 -64.72785,51.06314 z"
         id="path11417"
         inkscape:connector-curvature="0" />
      <path
         style="fill:#54657a"
         d="m 294.21428,671.99034 c -8.03215,-2.05129 -13.79025,-4.76476 -20,-9.42489 -9.7141,-7.28999 -20.44514,-23.96885 -16.87592,-26.22965 2.23644,-1.41659 2.45439,-1.20124 5.91835,5.84785 11.71871,23.84736 41.57866,33.19648 65.38271,20.47125 6.50183,-3.47577 15.32034,-12.29428 18.79611,-18.79611 10.06115,-18.82058 6.76654,-41.44567 -8.21709,-56.4293 -12.05095,-12.05095 -29.10475,-16.72533 -45.4692,-12.46293 -17.34415,4.51758 -31.20881,19.15507 -34.63389,36.56443 -1.0336,5.2537 -1.42682,5.90266 -3.57649,5.90266 -2.24206,0 -2.36769,-0.26884 -1.75246,-3.75 3.58075,-20.26088 16.59265,-35.82776 35.42788,-42.3844 9.16381,-3.18997 23.83619,-3.18997 33,0 15.74514,5.48096 27.58415,17.32486 33.12074,33.1344 3.20508,9.15199 3.21115,23.81458 0.0137,33 -5.49939,15.79795 -17.50899,27.77101 -33.13444,33.03357 -8.16964,2.75148 -20.55258,3.42508 -28,1.52312 z"
         id="path11415"
         inkscape:connector-curvature="0" />
      <path
         style="fill:#445870"
         d="m 295.21428,671.86705 c -16.54131,-3.58208 -31.12512,-15.52193 -37.45065,-30.66106 -1.45037,-3.47122 -1.43048,-3.76559 0.31768,-4.70118 1.63542,-0.87525 2.30384,-0.11031 5.43123,6.21538 7.82954,15.83666 24.03967,25.71346 42.20174,25.71346 26.51009,0 47.5,-20.98991 47.5,-47.5 0,-26.51009 -20.98991,-47.5 -47.5,-47.5 -12.45116,0 -25.40342,5.27184 -33.94988,13.8183 -5.49929,5.49929 -11.03104,16.04819 -12.73069,24.27707 -1.03651,5.0183 -1.54544,5.90463 -3.3904,5.90463 -2.04669,0 -2.12046,-0.2716 -1.2901,-4.75 4.12216,-22.232 19.71165,-38.18636 41.86107,-42.84083 21.89301,-4.60059 45.88892,7.36846 55.98658,27.92583 15.19797,30.9409 -2.54236,66.99575 -36.48658,74.15408 -8.47617,1.7875 -12.03322,1.77783 -20.5,-0.0557 z"
         id="path11413"
         inkscape:connector-curvature="0" />
    </g>
  </g>
</svg>
