<?xml version="1.0" encoding="UTF-8" standalone="no"?>
<!-- Created with Inkscape (http://www.inkscape.org/) -->

<svg
   xmlns:dc="http://purl.org/dc/elements/1.1/"
   xmlns:cc="http://creativecommons.org/ns#"
   xmlns:rdf="http://www.w3.org/1999/02/22-rdf-syntax-ns#"
   xmlns:svg="http://www.w3.org/2000/svg"
   xmlns="http://www.w3.org/2000/svg"
   xmlns:sodipodi="http://sodipodi.sourceforge.net/DTD/sodipodi-0.dtd"
   xmlns:inkscape="http://www.inkscape.org/namespaces/inkscape"
   width="51.492622mm"
   height="72.22393mm"
   viewBox="0 0 182.45417 255.91156"
   id="svg4178"
   version="1.1"
   inkscape:version="0.91 r13725"
   sodipodi:docname="HTML5.svg">
  <defs
     id="defs4180" />
  <sodipodi:namedview
     id="base"
     pagecolor="#ffffff"
     bordercolor="#666666"
     borderopacity="1.0"
     inkscape:pageopacity="0.0"
     inkscape:pageshadow="2"
     inkscape:zoom="0.35"
     inkscape:cx="-373.77289"
     inkscape:cy="102.19728"
     inkscape:document-units="px"
     inkscape:current-layer="layer1"
     showgrid="false"
     fit-margin-top="0"
     fit-margin-left="0"
     fit-margin-right="0"
     fit-margin-bottom="0"
     inkscape:window-width="1366"
     inkscape:window-height="718"
     inkscape:window-x="0"
     inkscape:window-y="26"
     inkscape:window-maximized="1" />
  <metadata
     id="metadata4183">
    <rdf:RDF>
      <cc:Work
         rdf:about="">
        <dc:format>image/svg+xml</dc:format>
        <dc:type
           rdf:resource="http://purl.org/dc/dcmitype/StillImage" />
        <dc:title></dc:title>
      </cc:Work>
    </rdf:RDF>
  </metadata>
  <g
     inkscape:label="Layer 1"
     inkscape:groupmode="layer"
     id="layer1"
     transform="translate(-243.05861,-378.64791)">
    <g
       id="g4737"
       transform="translate(-17.142861,42.857142)">
      <path
         style="fill:#ef8b69"
         d="m 313.46194,581.68524 c -19.50664,-5.46024 -35.74309,-10.25773 -36.081,-10.66109 -0.33791,-0.40336 -4.08681,-40.33338 -8.33088,-88.73338 -4.24408,-48.4 -7.97122,-89.9125 -8.28255,-92.25 l -0.56604,-4.25 91.22709,0 91.22709,0 -0.56723,4.25 c -0.31198,2.3375 -4.04354,43.85 -8.29236,92.25 -4.24882,48.4 -7.98624,88.31908 -8.30537,88.70906 -0.77616,0.94846 -72.56517,20.8155 -74.80621,20.70203 -0.96576,-0.0489 -17.7159,-4.55638 -37.22254,-10.01662 z m 61.85645,-35.81979 c 11.76441,-3.27489 21.71156,-6.31892 22.10479,-6.76451 0.39323,-0.44559 1.92718,-15.21017 3.40877,-32.81017 1.4816,-17.6 2.90552,-33.0125 3.16426,-34.25 l 0.47045,-2.25 -41.42521,0 -41.42521,0 -0.57008,-4.75 c -0.31354,-2.6125 -0.85819,-7.7875 -1.21034,-11.5 l -0.64025,-6.75 43.52672,0 43.52673,0 0.64869,-8.75 c 0.35678,-4.8125 0.88293,-9.9875 1.16923,-11.5 l 0.52053,-2.75 -57.17329,0 -57.1733,0 0.59778,4.75 c 0.67222,5.34157 5.5899,60.61079 5.5899,62.82424 0,1.21035 5.98463,1.42576 39.61129,1.42576 l 39.61129,0 -0.56252,3.25 c -0.30938,1.7875 -0.87026,7.525 -1.24638,12.75 -0.37613,5.225 -1.03089,10.43082 -1.45501,11.56849 -0.61496,1.64954 -3.25058,2.72773 -13.01308,5.32347 l -12.24193,3.25499 -12.10183,-3.26727 c -6.65601,-1.79699 -12.43244,-3.74256 -12.83652,-4.32347 -0.40408,-0.58092 -0.74158,-2.6809 -0.75,-4.66664 -0.008,-1.98573 -0.30148,-5.69823 -0.65123,-8.25 l -0.63593,-4.63957 -11.44353,0 -11.44353,0 0.5392,2.75 c 0.29656,1.5125 1.06858,9.54985 1.71561,17.86077 l 1.17642,15.11078 23.11384,6.5103 c 12.71261,3.58066 23.78884,6.34984 24.61384,6.15373 0.825,-0.19611 11.12542,-3.03602 22.88983,-6.3109 z m -97.88983,-192.57468 0,-17.5 6,0 6,0 0,5.5 0,5.5 5,0 5,0 0,-5.5 0,-5.5 6,0 6,0 0,17.5 0,17.5 -6,0 -6,0 0,-6 0,-6 -5,0 -5,0 0,6 0,6 -6,0 -6,0 0,-17.5 z m 49,6 0,-11.5 -5,0 -5,0 0,-6 0,-6 16,0 16,0 0,6 0,6 -5,0 -5,0 0,11.5 0,11.5 -6,0 -6,0 0,-11.5 z m 27,-6 0,-17.5 6.01242,0 6.01242,0 3.61326,5.64844 3.61327,5.64844 3.45472,-5.64844 3.45472,-5.64844 6.4196,0 6.41959,0 0,17.5 0,17.5 -6,0 -6,0 -0.0113,-8.25 -0.0113,-8.25 -3.7387,5.73666 c -2.05629,3.15516 -3.9637,5.7299 -4.2387,5.72164 -0.275,-0.008 -2.075,-2.58976 -4,-5.73666 l -3.5,-5.72164 -0.29044,8.25 -0.29044,8.25 -5.45956,0 -5.45956,0 0,-17.5 z m 44,0 0,-17.5 6,0 6,0 0,11.5 0,11.5 8,0 8,0 0,6 0,6 -14,0 -14,0 0,-17.5 z"
         id="path4745"
         inkscape:connector-curvature="0" />
      <path
         style="fill:#ef6428"
         d="m 313.92856,581.51374 c -19.8,-5.549 -36.10679,-10.151 -36.23731,-10.22667 -0.29896,-0.17333 -16.26269,-178.98259 -16.26269,-182.15796 l 0,-2.33834 90,0 90,0 0,2.35655 c 0,6.5023 -16.08177,181.1184 -16.73715,181.73223 -0.73418,0.68763 -67.15297,19.30747 -72.26285,20.25816 -1.42216,0.26459 -18.02093,-3.88466 -38.5,-9.62397 z m 60.5,-34.85277 c 12.375,-3.3955 22.83056,-6.45843 23.23458,-6.80651 0.57609,-0.49631 6.76542,-63.41389 6.76542,-68.77376 0,-1.03246 -8.26147,-1.28993 -41.39063,-1.28993 l -41.39062,0 -0.85938,-11.25 -0.85937,-11.25 43.17284,-0.26045 43.17284,-0.26046 0.53278,-2.73954 c 0.29303,-1.50675 0.83097,-6.67705 1.19544,-11.48955 l 0.66265,-8.75 -57.11827,0 -57.11828,0 0,2.61372 c 0,3.50391 4.88942,59.01626 5.56092,63.13628 l 0.52971,3.25 38.95468,0 38.95469,0 0,2.69705 c 0,3.39645 -2.13237,25.69882 -2.49568,26.10222 -0.14824,0.1646 -5.80321,1.7662 -12.5666,3.5591 l -12.29707,3.25983 -11.90848,-3.23058 c -6.54966,-1.77683 -12.11168,-3.4338 -12.36004,-3.68216 -0.24836,-0.24836 -0.72553,-4.33369 -1.06038,-9.07851 l -0.60881,-8.62695 -11.85147,0 c -11.62462,0 -11.85141,0.0431 -11.84851,2.25 0.006,4.80475 2.99845,33.08499 3.56039,33.65124 0.56209,0.56639 43.81352,12.85363 45.93665,13.05008 0.55,0.0509 11.125,-2.68561 23.5,-6.08112 z m -97,-193.3203 0,-17.5499 6,0 6,0 0,5.5 0,5.5 5,0 5,0 0,-5.5 0,-5.5 6,0 6,0 0,17.5499 0,17.54991 -5.75,-0.29991 -5.75,-0.2999 -0.2999,-5.75 -0.29991,-5.75 -4.90019,0 -4.90019,0 -0.29991,5.75 -0.2999,5.75 -5.75,0.2999 -5.75,0.29991 0,-17.54991 z m 48.78216,5.74904 -0.28216,-11.79894 -4.75,-0.30479 -4.75,-0.30479 0,-5.44521 0,-5.44521 16,0 16,0 0,5.5 0,5.5 -4.96826,0 -4.96827,0 -0.28173,11.75 -0.28174,11.75 -5.71784,0.29894 -5.71784,0.29895 -0.28216,-11.79895 z m 27.21784,-5.79894 0,-17.5 5.94394,0 5.94394,0 3.28969,5.5 c 1.80933,3.025 3.60933,5.5 4,5.5 0.39067,0 2.19067,-2.475 4,-5.5 l 3.28969,-5.5 6.28999,0 6.28998,0 -0.27362,17.25 -0.27361,17.25 -5.70877,0.29867 -5.70877,0.29868 -0.29123,-8.28453 -0.29123,-8.28453 -3.35425,5.23586 c -1.84483,2.87972 -3.69007,5.23585 -4.10052,5.23585 -0.41045,0 -2.27604,-2.3625 -4.14575,-5.25 l -3.39948,-5.25 -0.29044,8.25 -0.29044,8.25 -5.45956,0 -5.45956,0 0,-17.5 z m 44.66667,16.83333 c -0.36667,-0.36666 -0.66667,-8.24166 -0.66667,-17.5 l 0,-16.83333 6,0 6,0 0,11.5 0,11.5 8,0 8,0 0,6 0,6 -13.33333,0 c -7.33334,0 -13.63334,-0.3 -14,-0.66667 z"
         id="path4743"
         inkscape:connector-curvature="0" />
      <path
         style="fill:#e34c25"
         d="M 314.75403,581.45602 C 294.85805,575.86513 278.31572,571.02344 277.9933,570.6967 277.46457,570.16088 261.44192,394.40786 261.4325,389.04077 l -0.004,-2.25 90,0 90,0 -0.004,2.25 c -0.0103,6.4228 -16.11885,181.25964 -16.75195,181.81993 -0.40905,0.36235 -16.71905,5.05489 -36.24405,10.42787 -19.525,5.37298 -35.95,9.89588 -36.5,10.05088 -0.55,0.15501 -17.27854,-4.29254 -37.17453,-9.88343 z m 67.08976,-13.65906 c 15.89814,-4.39659 29.12637,-8.21446 29.39606,-8.48415 0.48673,-0.48672 14.13267,-150.50317 14.16949,-155.77204 l 0.0192,-2.75 -37,0 -37,0 0,11.5 0,11.5 -28.5,0 -28.5,0 0,2.73827 c 0,3.85416 4.99369,61.27864 5.56652,64.01173 l 0.47158,2.25 25.48095,0 25.48095,0 0,17.5 c 0,12.47131 -0.32882,17.5 -1.14431,17.5 -0.62937,0 -6.19645,-1.39019 -12.37129,-3.0893 l -11.22697,-3.08931 -0.62002,-5.16069 c -0.34102,-2.83839 -0.62394,-6.8482 -0.62872,-8.9107 l -0.009,-3.75 -12,0 -12,0 0.0303,2.75 c 0.0759,6.88796 2.87737,32.55135 3.62964,33.24961 0.46204,0.42887 11.07757,3.60212 23.59007,7.05166 l 22.75,6.2719 0,11.33842 c 0,6.23612 0.33964,11.33841 0.75475,11.33841 0.41512,0 13.76233,-3.59721 29.66048,-7.99381 z m -61.00931,-109.50686 -0.90592,-11.50067 15.75,6.7e-4 15.75,6.7e-4 0,11.5 0,11.5 -14.84408,0 -14.84408,0 -0.90592,-11.50067 z m -43.40592,-104.94943 0,-17.5499 6,0 6,0 0,5.5 0,5.5 5,0 5,0 0,-5.5 0,-5.5 6,0 6,0 0,17.5499 0,17.54991 -5.75,-0.29991 -5.75,-0.2999 -0.2999,-5.75 -0.29991,-5.75 -4.90019,0 -4.90019,0 -0.29991,5.75 -0.2999,5.75 -5.75,0.2999 -5.75,0.29991 0,-17.54991 z m 48.78216,5.74904 -0.28216,-11.79894 -4.75,-0.30479 -4.75,-0.30479 0,-5.44521 0,-5.44521 16,0 16,0 0,5.5 0,5.5 -4.96826,0 -4.96827,0 -0.28173,11.75 -0.28174,11.75 -5.71784,0.29894 -5.71784,0.29895 -0.28216,-11.79895 z m 27.21784,-5.79894 0,-17.5 5.94394,0 5.94394,0 3.28969,5.5 c 1.80933,3.025 3.60933,5.5 4,5.5 0.39067,0 2.19067,-2.475 4,-5.5 l 3.28969,-5.5 6.28999,0 6.28998,0 -0.27362,17.25 -0.27361,17.25 -5.70877,0.29867 -5.70877,0.29868 -0.29123,-8.28453 -0.29123,-8.28453 -3.35425,5.23586 c -1.84483,2.87972 -3.69007,5.23585 -4.10052,5.23585 -0.41045,0 -2.27604,-2.3625 -4.14575,-5.25 l -3.39948,-5.25 -0.29044,8.25 -0.29044,8.25 -5.45956,0 -5.45956,0 0,-17.5 z m 44.66667,16.83333 c -0.36667,-0.36666 -0.66667,-8.24166 -0.66667,-17.5 l 0,-16.83333 6,0 6,0 0,11.5 0,11.5 8,0 8,0 0,6 0,6 -13.33333,0 c -7.33334,0 -13.63334,-0.3 -14,-0.66667 z"
         id="path4741"
         inkscape:connector-curvature="0" />
      <path
         style="fill:#050505"
         d="m 277.42856,353.34067 0,-17.5499 6,0 6,0 0,5.5 0,5.5 5,0 5,0 0,-5.5 0,-5.5 6,0 6,0 0,17.5499 0,17.54991 -5.75,-0.29991 -5.75,-0.2999 -0.2999,-5.75 -0.29991,-5.75 -4.90019,0 -4.90019,0 -0.29991,5.75 -0.2999,5.75 -5.75,0.2999 -5.75,0.29991 0,-17.54991 z m 49,5.5 0,-12.0499 -5,0 -5,0 0,-5.5 0,-5.5 16,0 16,0 0,5.5 0,5.5 -4.96826,0 -4.96827,0 -0.28173,11.75 -0.28174,11.75 -5.75,0.2999 -5.75,0.29991 0,-12.04991 z m 27,-5.5499 0,-17.5 5.94394,0 5.94394,0 3.28969,5.5 c 1.80933,3.025 3.60933,5.5 4,5.5 0.39067,0 2.19067,-2.475 4,-5.5 l 3.28969,-5.5 6.28999,0 6.28998,0 -0.27362,17.25 -0.27361,17.25 -5.75,0.2999 -5.75,0.29991 0,-8.76862 0,-8.76862 -3.57708,5.71872 c -1.96739,3.14529 -3.87989,5.71063 -4.25,5.70074 -0.3701,-0.01 -2.24792,-2.37238 -4.17292,-5.25 l -3.5,-5.23203 -0.29044,8.25 -0.29044,8.25 -5.45956,0 -5.45956,0 0,-17.5 z m 44.66667,16.83333 c -0.36667,-0.36666 -0.66667,-8.24166 -0.66667,-17.5 l 0,-16.83333 6,0 6,0 0,11.5 0,11.5 8,0 8,0 0,6 0,6 -13.33333,0 c -7.33334,0 -13.63334,-0.3 -14,-0.66667 z"
         id="path4739"
         inkscape:connector-curvature="0" />
    </g>
  </g>
</svg>
