<?xml version="1.0" encoding="UTF-8" standalone="no"?>
<!-- Created with Inkscape (http://www.inkscape.org/) -->

<svg
   xmlns:dc="http://purl.org/dc/elements/1.1/"
   xmlns:cc="http://creativecommons.org/ns#"
   xmlns:rdf="http://www.w3.org/1999/02/22-rdf-syntax-ns#"
   xmlns:svg="http://www.w3.org/2000/svg"
   xmlns="http://www.w3.org/2000/svg"
   xmlns:sodipodi="http://sodipodi.sourceforge.net/DTD/sodipodi-0.dtd"
   xmlns:inkscape="http://www.inkscape.org/namespaces/inkscape"
   width="38.390244mm"
   height="27.657778mm"
   viewBox="0 0 136.02842 98"
   id="svg2"
   version="1.1"
   inkscape:version="0.91 r13725"
   sodipodi:docname="livecoding.svg">
  <defs
     id="defs4" />
  <sodipodi:namedview
     id="base"
     pagecolor="#ffffff"
     bordercolor="#666666"
     borderopacity="1.0"
     inkscape:pageopacity="0.0"
     inkscape:pageshadow="2"
     inkscape:zoom="2"
     inkscape:cx="58.194937"
     inkscape:cy="-10.590205"
     inkscape:document-units="px"
     inkscape:current-layer="layer1"
     showgrid="false"
     fit-margin-top="0"
     fit-margin-left="0"
     fit-margin-right="0"
     fit-margin-bottom="0"
     inkscape:window-width="1366"
     inkscape:window-height="718"
     inkscape:window-x="0"
     inkscape:window-y="26"
     inkscape:window-maximized="1" />
  <metadata
     id="metadata7">
    <rdf:RDF>
      <cc:Work
         rdf:about="">
        <dc:format>image/svg+xml</dc:format>
        <dc:type
           rdf:resource="http://purl.org/dc/dcmitype/StillImage" />
        <dc:title></dc:title>
      </cc:Work>
    </rdf:RDF>
  </metadata>
  <g
     inkscape:label="Layer 1"
     inkscape:groupmode="layer"
     id="layer1"
     transform="translate(-191.0936,-421.71592)">
    <path
       style="fill:#f9f9f9"
       d="m 287.10781,517.37644 c 0,-1.51473 -0.86703,-2.73453 -2.45937,-3.46006 -2.79611,-1.27399 -7.09141,-7.35487 -8.08817,-11.45046 l -0.66928,-2.75 23.60841,0 c 22.27508,0 23.72136,-0.11295 25.60841,-2 1.92332,-1.92332 1.91139,-3.33345 2,-36.77749 0.0893,-33.69669 -0.22021,-35.09189 -1.5567,-37 -1.30763,-1.37023 -3.50491,-1.68686 -66.4433,-2.22251 -62.86927,0.36823 -64.73435,0.22267 -66.4433,2.22251 -1.33649,1.90811 -1.64597,2.85694 -1.5567,37 0.0874,33.44405 0.0767,34.85417 2,36.77749 1.86954,1.86954 3.33333,2 22.44098,2 11.24254,0 20.65319,0.34335 20.91254,0.76299 0.98018,1.58596 -4.56338,11.2479 -7.42253,12.93685 -1.88068,1.11094 -2.93099,2.54998 -2.93099,4.01577 l 0,2.28439 30.5,0 30.5,0 z m -47.23121,-9.51689 3.40335,-6.85636 8.87439,-0.62993 c 4.88092,-0.34645 10.81908,-0.36337 13.19591,-0.0376 4.22057,0.57849 4.39482,0.75337 7.45936,7.48629 l 3.13784,6.89396 -19.7371,0 -19.7371,0 3.40335,-6.85637 z m -42.0945,-13.80268 c -0.37086,-0.37085 -0.67429,-15.67428 -0.67429,-34.00762 l 0,-33.33333 62.0133,0 62.0133,0 -0.2633,33.75 -0.2633,33.75 -61.07571,0.25762 c -33.59165,0.14169 -61.37915,-0.0458 -61.75,-0.41667 z m 54.47465,-14.09095 c 2.25169,-4.8125 5.33727,-11.45 6.85683,-14.75 1.51956,-3.3 5.5149,-11.77711 8.87853,-18.83801 3.36364,-7.06091 6.1157,-13.02341 6.1157,-13.25 0,-0.2266 -1.33417,-0.41199 -2.96482,-0.41199 -2.03926,0 -3.35327,0.7024 -4.20915,2.25 -4.51964,8.17234 -24.69499,52.15301 -24.25262,52.86879 0.29955,0.48466 1.65543,0.88121 3.01308,0.88121 2.12462,0 3.03873,-1.21883 6.56245,-8.75 z m -9.14894,-5.69098 c 0,-3.05602 0.1076,-2.9937 -14.97875,-8.67574 -14.30291,-5.38696 -14.65892,-4.11486 2.95204,-10.54832 5.21031,-1.90338 10.04781,-3.9375 10.75,-4.52027 1.48199,-1.22994 1.6983,-4.4361 0.3553,-5.26612 -0.94138,-0.5818 -31.56198,10.92355 -33.82859,12.71072 -0.6875,0.54208 -1.25,1.99455 -1.25,3.2277 0,1.96165 2.03269,3.06285 16.25,8.80337 8.9375,3.6087 17.0375,6.59465 18,6.63545 1.20898,0.0512 1.75,-0.68045 1.75,-2.36679 z m 46.73363,-2.58729 c 20.72157,-8.16157 20.26637,-7.91403 20.26637,-11.02087 0,-2.62318 -0.74846,-3.03934 -16.8123,-9.34813 -9.24677,-3.6315 -17.15028,-6.60273 -17.56336,-6.60273 -0.41308,0 -0.61005,1.41618 -0.4377,3.14707 0.30536,3.06676 0.63844,3.26455 13.05045,7.75 7.0054,2.53161 12.7429,4.87688 12.75,5.21171 0.007,0.33482 -5.83709,2.76087 -12.98709,5.39122 -12.5198,4.60579 -13,4.88804 -13,7.64122 0,1.57233 0.44263,2.85878 0.98363,2.85878 0.54099,0 6.72849,-2.26272 13.75,-5.02827 z"
       id="path3415"
       inkscape:connector-curvature="0"
       sodipodi:nodetypes="ssscssscccsssssscccsccsssccccccscccccscsssssscsssssssssscssssssscssss" />
  </g>
</svg>
