<?xml version="1.0" encoding="UTF-8" standalone="no"?>
<!-- Created with Inkscape (http://www.inkscape.org/) -->

<svg
   xmlns:dc="http://purl.org/dc/elements/1.1/"
   xmlns:cc="http://creativecommons.org/ns#"
   xmlns:rdf="http://www.w3.org/1999/02/22-rdf-syntax-ns#"
   xmlns:svg="http://www.w3.org/2000/svg"
   xmlns="http://www.w3.org/2000/svg"
   xmlns:sodipodi="http://sodipodi.sourceforge.net/DTD/sodipodi-0.dtd"
   xmlns:inkscape="http://www.inkscape.org/namespaces/inkscape"
   width="29.655022mm"
   height="29.605652mm"
   viewBox="0 0 105.07685 104.90192"
   id="svg10219"
   version="1.1"
   inkscape:version="0.91 r13725"
   sodipodi:docname="Low.svg">
  <defs
     id="defs10221" />
  <sodipodi:namedview
     id="base"
     pagecolor="#ffffff"
     bordercolor="#666666"
     borderopacity="1.0"
     inkscape:pageopacity="0.0"
     inkscape:pageshadow="2"
     inkscape:zoom="3.179661"
     inkscape:cx="65.668541"
     inkscape:cy="47.540498"
     inkscape:document-units="px"
     inkscape:current-layer="layer1"
     showgrid="false"
     inkscape:window-width="1366"
     inkscape:window-height="718"
     inkscape:window-x="0"
     inkscape:window-y="26"
     inkscape:window-maximized="1"
     fit-margin-top="0"
     fit-margin-left="0"
     fit-margin-right="0"
     fit-margin-bottom="0" />
  <metadata
     id="metadata10224">
    <rdf:RDF>
      <cc:Work
         rdf:about="">
        <dc:format>image/svg+xml</dc:format>
        <dc:type
           rdf:resource="http://purl.org/dc/dcmitype/StillImage" />
        <dc:title></dc:title>
      </cc:Work>
    </rdf:RDF>
  </metadata>
  <g
     inkscape:label="Layer 1"
     inkscape:groupmode="layer"
     id="layer1"
     transform="translate(-350.04574,-899.2865)">
    <g
       id="g10784"
       transform="translate(-8.8059702,-6.2899787)">
      <path
         style="fill:#e2ddd9"
         d="m 397.61988,1009.0757 c -9.02448,-2.4809 -16.00026,-6.6549 -23.26794,-13.9226 -10.87477,-10.87477 -15.38971,-21.90323 -15.41151,-37.64512 -0.02,-14.46966 5.02518,-26.80855 15.06813,-36.8515 10.18708,-10.18708 22.32853,-15.08 37.42,-15.08 15.09147,0 27.23292,4.89292 37.42,15.08 10.04295,10.04295 15.08817,22.38184 15.06813,36.8515 -0.0218,15.74189 -4.53674,26.77035 -15.41151,37.64512 -10.91424,10.9142 -22.07119,15.4636 -37.57662,15.3221 -4.675,-0.043 -10.66391,-0.6724 -13.30868,-1.3995 z m 22.56595,-4.9659 c 14.45487,-3.0631 26.43762,-12.04296 32.74601,-24.53981 6.42432,-12.72651 7.02503,-24.8246 1.91128,-38.49232 -6.48697,-17.33799 -24.52322,-29.66001 -43.41456,-29.66001 -23.54522,0 -42.20751,16.58814 -46.51947,41.34923 -2.06851,11.87828 3.24867,27.7949 12.63898,37.8339 5.36234,5.73277 16.1265,11.61081 24.65624,13.46421 8.07972,1.7556 9.8869,1.7601 17.98152,0.045 z"
         id="path10794"
         inkscape:connector-curvature="0" />
      <path
         style="fill:#d5cec9"
         d="m 399.92856,1009.1332 c -16.28264,-4.1584 -30.11243,-15.4476 -36.19755,-29.54804 -9.17197,-21.25325 -5.28954,-42.70613 10.60528,-58.60095 10.93311,-10.93311 21.62143,-15.35884 37.09227,-15.35884 15.47084,0 26.15916,4.42573 37.09227,15.35884 11.39649,11.39649 16.13821,23.62167 15.14696,39.05211 -1.44715,22.52724 -15.02109,40.59598 -35.73923,47.57368 -8.16964,2.7515 -20.55258,3.4251 -28,1.5232 z m 23.46504,-5.0896 c 17.62366,-4.59041 31.40546,-19.36359 34.72718,-37.22527 2.43433,-13.08996 -3.07198,-30.85358 -12.78154,-41.23388 -5.95734,-6.36889 -17.58241,-12.35022 -27.13489,-13.96145 -9.32804,-1.57338 -18.15941,0.0101 -28.26463,5.06794 -13.67437,6.84423 -22.6361,19.70643 -25.17174,36.12739 -4.98837,32.30489 26.30115,59.64467 58.62562,51.22527 z"
         id="path10792"
         inkscape:connector-curvature="0" />
      <path
         style="fill:#d0c5bc"
         d="m 458.51013,954.59469 c -2.31248,-20.43962 -14.19009,-35.15559 -33.58157,-41.60648 -7.31585,-2.43373 -19.68415,-2.43373 -27,0 -18.80184,6.25473 -29.20249,18.62946 -33.48307,39.83827 -0.43509,2.15573 -1.119,2.75 -3.16481,2.75 -2.54699,0 -2.59412,-0.11808 -1.95869,-4.90814 4.72646,-35.62984 43.54161,-55.55722 76.60657,-39.32917 7.16303,3.51556 18.72175,15.07428 22.23731,22.23731 3.40657,6.94095 5.76269,16.02171 5.76269,22.2101 0,4.37297 -0.20637,4.7899 -2.37083,4.7899 -2.1548,0 -2.43251,-0.54509 -3.0476,-5.98179 z"
         id="path10790"
         inkscape:connector-curvature="0" />
      <path
         style="fill:#c4b6aa"
         d="m 459.52814,959.40039 c -0.21691,-0.72815 -0.93732,-4.61944 -1.60091,-8.6473 -1.53031,-9.28861 -6.91134,-20.18452 -12.95105,-26.22423 -5.88368,-5.88367 -16.90887,-11.38853 -26.09815,-13.03075 -9.55538,-1.70764 -18.82846,-0.18626 -28.90163,4.74171 -12.87276,6.29759 -21.28769,17.29713 -24.6613,32.23593 -1.46756,6.49855 -1.81728,7.10073 -4.12387,7.10073 -2.45175,0 -2.50198,-0.13835 -1.84585,-5.08451 2.10196,-15.8453 12.7721,-30.94058 27.37029,-38.72134 25.8977,-13.80333 58.4671,-3.52866 71.45931,22.54327 5.76445,11.56774 7.60775,25.2998 3.50056,26.07817 -0.96417,0.18272 -1.9305,-0.26354 -2.1474,-0.99168 z"
         id="path10788"
         inkscape:connector-curvature="0" />
      <path
         style="fill:#b8a696"
         d="m 460.05042,959.29833 c -0.61703,-0.61702 -1.12186,-2.51231 -1.12186,-4.21175 0,-4.75202 -2.76948,-14.30604 -5.77875,-19.93524 -3.47577,-6.50183 -12.29428,-15.32034 -18.79611,-18.79611 -14.19523,-7.58852 -31.65505,-7.58852 -45.85028,0 -11.25825,6.01846 -20.98024,19.18649 -23.62699,32.00177 -1.16747,5.65276 -2.17825,7.17432 -4.78577,7.20417 -1.81062,0.0207 -0.82796,-6.32224 2.39892,-15.48469 4.89039,-13.88586 16.98264,-25.89878 31.43898,-31.23273 6.33804,-2.33854 9.04928,-2.76727 17.5,-2.76727 8.44444,0 11.16667,0.42982 17.5,2.76316 18.83284,6.93841 32.58319,24.45158 34.59194,44.05814 0.5289,5.16237 0.36809,6.48006 -0.84776,6.94663 -0.82526,0.31668 -2.0053,0.0709 -2.62232,-0.54608 z"
         id="path10786"
         inkscape:connector-curvature="0" />
    </g>
  </g>
</svg>
