<?xml version="1.0" encoding="UTF-8" standalone="no"?>
<!-- Created with Inkscape (http://www.inkscape.org/) -->

<svg
   xmlns:dc="http://purl.org/dc/elements/1.1/"
   xmlns:cc="http://creativecommons.org/ns#"
   xmlns:rdf="http://www.w3.org/1999/02/22-rdf-syntax-ns#"
   xmlns:svg="http://www.w3.org/2000/svg"
   xmlns="http://www.w3.org/2000/svg"
   xmlns:sodipodi="http://sodipodi.sourceforge.net/DTD/sodipodi-0.dtd"
   xmlns:inkscape="http://www.inkscape.org/namespaces/inkscape"
   width="29.6297mm"
   height="29.608685mm"
   viewBox="0 0 104.98712 104.91266"
   id="svg9623"
   version="1.1"
   inkscape:version="0.91 r13725"
   sodipodi:docname="Medium.svg">
  <defs
     id="defs9625" />
  <sodipodi:namedview
     id="base"
     pagecolor="#ffffff"
     bordercolor="#666666"
     borderopacity="1.0"
     inkscape:pageopacity="0.0"
     inkscape:pageshadow="2"
     inkscape:zoom="3.0258065"
     inkscape:cx="81.967156"
     inkscape:cy="42.948129"
     inkscape:document-units="px"
     inkscape:current-layer="layer1"
     showgrid="false"
     fit-margin-top="0"
     fit-margin-left="0"
     fit-margin-right="0"
     fit-margin-bottom="0"
     inkscape:window-width="1366"
     inkscape:window-height="718"
     inkscape:window-x="0"
     inkscape:window-y="26"
     inkscape:window-maximized="1" />
  <metadata
     id="metadata9628">
    <rdf:RDF>
      <cc:Work
         rdf:about="">
        <dc:format>image/svg+xml</dc:format>
        <dc:type
           rdf:resource="http://purl.org/dc/dcmitype/StillImage" />
        <dc:title></dc:title>
      </cc:Work>
    </rdf:RDF>
  </metadata>
  <g
     inkscape:label="Layer 1"
     inkscape:groupmode="layer"
     id="layer1"
     transform="translate(-448.03284,-536.11196)">
    <g
       id="g10188"
       transform="translate(-26.439233,-8.5927501)">
      <path
         style="fill:#d4cecb"
         d="m 513.68875,648.12435 c -9.55199,-2.57105 -16.38785,-6.58182 -23.72761,-13.92158 -10.69486,-10.69486 -15.4782,-22.45385 -15.4782,-38.0504 0,-23.20467 15.20789,-43.20148 37.9315,-49.87602 7.11918,-2.0911 22.01782,-2.0911 29.137,0 17.57741,5.16296 31.17316,18.75871 36.33612,36.33612 2.0911,7.11918 2.0911,22.01782 0,29.137 -6.77838,23.07712 -27.12602,38.07725 -51.36472,37.86569 -4.14694,-0.0362 -9.92229,-0.70706 -12.83409,-1.49081 z m 28.02973,-6.42154 c 21.2867,-7.99695 34.91133,-29.6398 31.6467,-50.27109 -4.63852,-29.3137 -32.64328,-47.42348 -60.03217,-38.82089 -18.15243,5.70151 -29.87049,20.05713 -33.01411,40.44509 -1.29097,8.37255 0.22827,16.08302 5.16572,26.21709 9.63399,19.77369 35.66563,30.15684 56.23386,22.4298 z"
         id="path10198"
         inkscape:connector-curvature="0" />
      <path
         style="fill:#9ba3a6"
         d="m 546.08993,643.09918 c -0.33385,-0.86998 -0.60699,-1.72722 -0.60699,-1.90498 0,-0.17775 2.08107,-1.54278 4.62461,-3.03339 10.04546,-5.88703 16.6451,-13.78362 21.07738,-25.21949 3.72927,-9.62197 3.72062,-21.92034 -0.0222,-31.57971 -5.52154,-14.24982 -14.12547,-22.84261 -28.41944,-28.38264 -9.59685,-3.71952 -21.92385,-3.71952 -31.52071,0 -17.52942,6.79402 -27.05105,18.67637 -31.21323,38.952 -0.433,2.10934 -1.14249,2.75 -3.04546,2.75 -2.98993,0 -3.2341,-2.58111 -1.02819,-10.86904 2.51355,-9.44377 6.54066,-16.27762 13.97062,-23.70758 10.74631,-10.74631 21.94981,-15.39964 37.07662,-15.39964 15.12681,0 26.33031,4.65333 37.07662,15.39964 10.74631,10.74631 15.39964,21.94981 15.39964,37.07662 0,14.04317 -4.40519,25.52882 -13.60069,35.46105 -8.89837,9.6113 -18.2042,14.53389 -19.76858,10.45716 z"
         id="path10196"
         inkscape:connector-curvature="0" />
      <path
         style="fill:#778489"
         d="m 547.14961,644.0143 c -1.61709,-1.61708 -0.24685,-3.32634 5.80316,-7.23896 10.16282,-6.57244 16.68473,-15.91168 19.99988,-28.63939 3.99476,-15.33693 -0.93681,-32.88258 -12.48946,-44.43523 -11.5247,-11.52469 -29.10131,-16.48344 -44.34919,-12.51187 -18.63977,4.85504 -30.32877,16.79421 -35.38658,36.1439 -1.4775,5.65252 -2.17892,6.90401 -4.01726,7.16777 -2.70078,0.3875 -2.78629,-0.82235 -0.68744,-9.72648 4.3749,-18.55999 19.9933,-34.17839 38.55329,-38.55329 38.30069,-9.02811 72.39526,25.06646 63.36715,63.36715 -2.94306,12.48555 -10.85365,23.85144 -21.59067,31.02135 -6.01543,4.01695 -7.8954,4.71253 -9.20288,3.40505 z"
         id="path10194"
         inkscape:connector-curvature="0" />
      <path
         style="fill:#6c7b81"
         d="m 547.65287,643.4509 c -1.86813,-1.86813 -1.46989,-2.40947 4.08007,-5.54633 13.61522,-7.69539 22.75,-24.04708 22.75,-40.7236 0,-26.44709 -21.05291,-47.5 -47.5,-47.5 -22.71961,0 -42.07457,15.79531 -46.68057,38.09537 -1.05719,5.11842 -1.52249,5.90463 -3.49451,5.90463 -2.01848,0 -2.20976,-0.36636 -1.69691,-3.25 2.18336,-12.27641 6.52732,-21.00208 14.68486,-29.49731 19.96752,-20.79409 52.26335,-21.26934 73.29003,-1.07848 20.85569,20.02666 21.47375,52.33953 1.40094,73.24327 -6.97444,7.26316 -14.99237,12.19399 -16.83391,10.35245 z"
         id="path10192"
         inkscape:connector-curvature="0" />
      <path
         style="fill:#64757c"
         d="m 547.48294,641.92925 c 0,-1.06294 1.81965,-2.71704 4.62783,-4.20677 13.95903,-7.40525 23.10424,-25.14913 22.13297,-42.94323 -1.38729,-25.41583 -19.44325,-43.4718 -44.85908,-44.85909 -13.583,-0.7414 -27.3233,4.34028 -36.47162,13.4886 -5.20026,5.20027 -10.94418,16.29923 -12.61067,24.36758 -1.03651,5.0183 -1.54544,5.90463 -3.3904,5.90463 -2.04669,0 -2.12046,-0.2716 -1.2901,-4.75 4.0827,-22.0192 19.71736,-38.17475 41.36107,-42.73908 8.7386,-1.84284 11.2614,-1.84284 20,0 23.08274,4.8678 39.38061,23.15433 42.02389,47.1516 1.8481,16.77823 -8.50266,37.69838 -23.37369,47.2411 -5.43155,3.48541 -8.1502,3.93395 -8.1502,1.34466 z"
         id="path10190"
         inkscape:connector-curvature="0" />
    </g>
  </g>
</svg>
