<?xml version="1.0" encoding="UTF-8" standalone="no"?>
<!-- Created with Inkscape (http://www.inkscape.org/) -->

<svg
   xmlns:dc="http://purl.org/dc/elements/1.1/"
   xmlns:cc="http://creativecommons.org/ns#"
   xmlns:rdf="http://www.w3.org/1999/02/22-rdf-syntax-ns#"
   xmlns:svg="http://www.w3.org/2000/svg"
   xmlns="http://www.w3.org/2000/svg"
   xmlns:sodipodi="http://sodipodi.sourceforge.net/DTD/sodipodi-0.dtd"
   xmlns:inkscape="http://www.inkscape.org/namespaces/inkscape"
   width="305.39322mm"
   height="154.25539mm"
   viewBox="0 0 1082.102 546.5742"
   id="svg8416"
   version="1.1"
   inkscape:version="0.91 r13725"
   sodipodi:docname="MongoDB.svg">
  <defs
     id="defs8418" />
  <sodipodi:namedview
     id="base"
     pagecolor="#ffffff"
     bordercolor="#666666"
     borderopacity="1.0"
     inkscape:pageopacity="0.0"
     inkscape:pageshadow="2"
     inkscape:zoom="0.35"
     inkscape:cx="126.50801"
     inkscape:cy="207.8599"
     inkscape:document-units="px"
     inkscape:current-layer="layer1"
     showgrid="false"
     fit-margin-top="0"
     fit-margin-left="0"
     fit-margin-right="0"
     fit-margin-bottom="0"
     inkscape:window-width="1366"
     inkscape:window-height="718"
     inkscape:window-x="0"
     inkscape:window-y="26"
     inkscape:window-maximized="1" />
  <metadata
     id="metadata8421">
    <rdf:RDF>
      <cc:Work
         rdf:about="">
        <dc:format>image/svg+xml</dc:format>
        <dc:type
           rdf:resource="http://purl.org/dc/dcmitype/StillImage" />
        <dc:title></dc:title>
      </cc:Work>
    </rdf:RDF>
  </metadata>
  <g
     inkscape:label="Layer 1"
     inkscape:groupmode="layer"
     id="layer1"
     transform="translate(257.22229,-193.64791)">
    <g
       id="g8975"
       transform="translate(-85.714284,-57.142857)">
      <path
         style="fill:#bcbab7"
         d="m 323.7146,795.84002 c -13.88796,-4.34032 -25.34217,-17.4143 -25.26408,-28.83676 0.0511,-7.46921 6.32235,-14.85366 21.72804,-25.58482 1.7875,-1.24512 3.25,-2.57149 3.25,-2.94748 0,-0.37599 -2.06665,-1.77998 -4.59255,-3.11996 -5.46561,-2.89951 -9.29344,-7.5828 -10.06035,-12.3087 -0.55194,-3.40126 -0.47259,-3.48658 8.22456,-8.84296 4.83004,-2.97471 8.93759,-5.88934 9.12791,-6.47696 0.19031,-0.58761 -1.99094,-2.16261 -4.84723,-3.5 -23.37934,-10.9468 -25.05026,-45.94958 -2.89959,-60.74122 14.86945,-9.92944 32.43926,-12.15179 50.14544,-6.34273 15.8411,5.19717 24.35429,5.37036 31.32877,0.63735 l 3.55341,-2.41141 0.61987,2.46977 c 0.78862,3.14213 -0.31185,9.08686 -2.22173,12.0017 -2.06594,3.15302 -6.44844,4.71519 -12.07701,4.30492 l -4.8015,-0.34999 0,12 c 0,11.11272 -0.20661,12.42073 -2.79424,17.69009 -6.25638,12.74028 -24.71726,23.80991 -39.70793,23.80991 -9.39076,0 -12.81421,8.91324 -4.77969,12.4443 1.84627,0.81142 11.37434,2.13808 21.78186,3.03285 21.83915,1.8776 28.41394,3.47339 33.99574,8.2512 6.39951,5.47774 8.46649,10.30572 8.48695,19.82351 0.0157,7.31427 -0.32803,8.75061 -3.7525,15.67957 -5.05944,10.23708 -13.81744,18.33683 -26.23019,24.25873 -4.95,2.36156 -11.11177,4.79237 -13.69282,5.40179 -6.45964,1.52522 -29.26877,1.29879 -34.52114,-0.3427 z m 42.88616,-13.10505 c 12.63731,-4.44424 19.1832,-14.40188 16.72213,-25.43783 -2.34498,-10.51543 -11.70662,-14.85764 -33.92544,-15.73566 -12.31625,-0.48669 -13.88744,-0.3499 -17.5,1.52365 -5.12592,2.6584 -9.8195,7.04917 -11.95993,11.18832 -2.07203,4.00685 -2.14835,11.89277 -0.15202,15.70532 3.53191,6.74516 12.64781,12.55797 22.51369,14.35599 6.17953,1.12621 18.93849,0.28627 24.30157,-1.59979 z m -13.9902,-86.61687 c 8.54791,-2.56102 13.49233,-13.15853 12.55049,-26.89978 -0.29736,-4.33833 -1.37018,-9.57423 -2.46896,-12.04977 -6.08045,-13.69915 -23.49699,-17.87961 -33.36747,-8.00913 -4.31577,4.31577 -5.88281,9.15744 -5.89048,18.19985 -0.0172,20.29704 13.37146,33.49411 29.17642,28.75883 z m -280.182,42.07367 C 51.47519,735.08555 36.61,719.38455 32.70698,696.2368 c -3.1362,-18.6 1.58762,-34.80369 13.4326,-46.07664 7.10064,-6.75774 12.5348,-9.98623 22.28898,-13.24213 36.2087,-12.08629 67.97044,10.0504 67.97044,47.37274 0,14.93524 -4.70901,27.40026 -14.18918,37.55959 -11.6821,12.51902 -31.55662,19.04311 -49.78126,16.34141 z m 25.78212,-12.45405 c 10.58457,-4.42143 15.19646,-14.57557 15.19123,-33.44695 -0.005,-17.45657 -3.91498,-29.21976 -12.69615,-38.19487 -11.69128,-11.9495 -29.80691,-12.45039 -39.2101,-1.08415 -8.73335,10.55656 -9.53553,36.65464 -1.6557,53.86646 3.48608,7.61459 11.58679,15.88466 17.9606,18.33608 6.23741,2.39896 15.36017,2.63292 20.41012,0.52343 z m 363.16848,12.55199 c -24.28264,-3.83707 -39.18229,-21.6109 -40.65623,-48.49894 -0.65301,-11.91236 0.61221,-18.98251 4.96049,-27.71948 6.00615,-12.06813 17.23203,-20.77049 33.11348,-25.66975 24.72512,-7.62742 49.30573,1.24636 59.87262,21.61448 4.55827,8.78624 6.19912,15.78637 6.15886,26.27475 -0.0614,16.00959 -4.89735,28.50223 -14.90333,38.5 -11.89868,11.88892 -31.59547,18.17739 -48.54589,15.49894 z m 26.71034,-13.07685 c 8.69351,-4.20846 13.07577,-13.22701 14.02884,-28.87093 1.29533,-21.26192 -6.26777,-40.12975 -19.02374,-47.45893 -9.2183,-5.29655 -21.53486,-5.35345 -28.61189,-0.13218 -8.21371,6.05988 -11.48933,14.81148 -11.43074,30.53995 0.0823,22.08676 7.72675,38.02123 21.55574,44.93166 7.7388,3.86712 16.75386,4.24737 23.48179,0.99043 z m -329.15016,11.24612 c -0.74658,-1.9466 -0.59561,-6.5077 0.25453,-7.68965 0.40408,-0.56179 3.4252,-1.68679 6.71361,-2.5 4.55716,-1.12697 6.27766,-2.07304 7.23525,-3.97856 0.92699,-1.84461 1.26021,-10.66026 1.27109,-33.62756 0.0124,-26.25921 -0.21648,-31.31944 -1.46363,-32.35449 -0.8131,-0.67481 -4.4969,-2.44967 -8.18622,-3.94411 -12.7324,-5.15757 -11.50886,-8.4527 4.37101,-11.77155 6.08314,-1.27137 14.37526,-3.3993 18.42692,-4.72875 4.16566,-1.36685 7.75423,-2.04185 8.2586,-1.55342 0.49056,0.47506 0.81009,4.1067 0.71006,8.0703 l -0.18186,7.20655 2.28993,-1.61883 c 19.39388,-13.71022 29.62363,-16.90336 42.32425,-13.21119 4.74908,1.3806 6.91367,2.81098 11.89509,7.86038 9.98546,10.12174 11.49119,17.34605 11.53971,55.36597 0.0356,27.84939 -0.5194,26.31084 10.2547,28.43052 6.36206,1.25166 7.51512,2.82252 6.01571,8.19549 l -0.78677,2.8193 -25.97638,0.0758 -25.97638,0.0758 0,-4.82603 0,-4.82603 6.19093,-1.37512 c 8.6198,-1.91461 8.68035,-2.16644 8.09327,-33.66015 -0.49958,-26.79989 -1.0574,-30.05005 -6.08193,-35.43664 -6.92831,-7.42756 -19.31945,-8.64923 -30.5432,-3.01131 -3.87446,1.94621 -7.20797,4.3904 -7.9717,5.84498 -1.02796,1.95783 -1.21927,8.99166 -0.88213,32.4338 0.49502,34.41962 0.0176,32.83791 10.30009,34.12263 6.21505,0.77652 6.99973,1.73309 5.74693,7.00586 l -0.85226,3.58696 -26.23922,0.17538 c -21.05194,0.1407 -26.3402,-0.0879 -26.75,-1.15642 z m -328.31828,-4.34441 0.3075,-4.1762 5.79173,-1.15125 c 3.18545,-0.63318 6.53579,-1.8953 7.44521,-2.80471 0.91103,-0.91104 1.97695,-4.24391 2.37388,-7.42256 1.06742,-8.54788 1.03799,-58.12251 -0.0357,-60.12869 -0.86606,-1.61825 -5.5321,-4.07934 -14.32513,-7.55574 -3.99948,-1.58123 -4.86709,-3.93394 -2,-5.42343 0.9625,-0.50003 6.37685,-1.88974 12.0319,-3.08826 5.65504,-1.19851 13.42047,-3.2023 17.25649,-4.45288 3.83603,-1.25057 7.19667,-2.05168 7.4681,-1.78026 0.27143,0.27143 0.49351,3.79351 0.49351,7.82685 0,4.03333 0.33894,7.33333 0.7532,7.33333 0.41426,0 3.00176,-1.6132 5.75,-3.58489 11.67557,-8.37648 25.04618,-13.15071 33.384,-11.92039 8.18022,1.20707 15.99795,6.52926 21.1468,14.39642 l 1.534,2.34387 6.60878,-4.61987 c 8.42777,-5.89143 17.80319,-10.27645 25.10836,-11.74354 11.02735,-2.21461 23.6287,2.78246 29.86157,11.84163 6.67637,9.70378 7.16532,12.65875 7.61841,46.04161 0.46973,34.60934 -0.25866,32.14554 10.16139,34.37119 3.06542,0.65475 5.94238,1.51064 6.39324,1.90196 0.45086,0.39133 0.51328,2.34512 0.13871,4.34176 l -0.68103,3.63025 -25.27208,0 c -25.26538,0 -25.27223,-5.9e-4 -25.85258,-2.21985 -1.17531,-4.49437 0.20069,-6.53109 4.88718,-7.23387 2.40563,-0.36074 5.40576,-1.49196 6.66696,-2.5138 l 2.2931,-1.8579 0,-28.33729 c 0,-25.74779 -0.17061,-28.65712 -1.86697,-31.83729 -4.52049,-8.47453 -10.41264,-12 -20.05568,-12 -7.20151,0 -15.29617,2.55216 -19.93707,6.28595 l -2.85972,2.30076 0.16051,30.95664 c 0.12902,24.88381 0.4397,31.38335 1.5837,33.13175 0.98122,1.49963 3.37221,2.60802 7.69921,3.56912 l 6.27602,1.39402 0,3.93088 0,3.93088 -25.72672,0.26684 -25.72673,0.26683 -0.6083,-2.42369 c -1.04104,-4.14782 0.98173,-6.34253 6.55166,-7.10859 2.76231,-0.37992 6.03211,-1.5078 7.26623,-2.50642 2.19992,-1.7801 2.25025,-2.30557 2.57009,-26.83345 0.36142,-27.71584 -0.54652,-34.48388 -5.49663,-40.97382 -6.0252,-7.89943 -18.07466,-9.31476 -30.3466,-3.56451 -10.78954,5.05564 -9.983,2.02648 -9.983,37.49369 l 0,30.97403 2.40788,2.40788 c 1.60425,1.60425 4.08716,2.63065 7.43936,3.07533 5.48251,0.72728 6.42249,1.82725 5.50057,6.43682 l -0.59781,2.98906 -25.9325,0 -25.9325,0 0.3075,-4.1762 z m 717.13375,0.50316 c 0.69068,-4.31246 3.70094,-7.32696 7.31665,-7.32696 3.77483,0 9.06124,-2.59401 10.52661,-5.16534 1.79602,-3.15154 2.55875,-113.26789 0.82544,-119.16995 -0.91536,-3.11689 -1.92492,-4.18854 -5.38969,-5.72117 -2.34484,-1.03724 -6.76735,-2.18018 -9.82781,-2.53988 -8.0495,-0.94606 -8.52198,-1.42619 -6.28502,-6.38688 l 1.86469,-4.13513 49.07144,0.36288 c 47.28564,0.34967 49.33814,0.44373 56.40004,2.58447 25.1327,7.61871 42.0112,24.93945 48.8899,50.171 2.7471,10.07661 2.4589,32.92393 -0.548,43.44341 -8.1646,28.56371 -29.1073,47.17328 -62.1705,55.24449 -5.2409,1.27939 -14.71183,1.67191 -48.89333,2.02639 l -42.39333,0.43963 0.61291,-3.82696 z m 90.13875,-9.85987 c 17.5656,-4.57525 31.0396,-19.31635 36.7139,-40.16661 2.7983,-10.28239 3.0811,-32.40227 0.5437,-42.53432 -5.5564,-22.18761 -21.3627,-38.40817 -43.2226,-44.35525 -3.61345,-0.98306 -11.7675,-1.83298 -20.5,-2.13679 -13.44504,-0.46776 -14.67999,-0.35854 -16.97387,1.5012 l -2.47388,2.00566 0.005,55.85951 c 0.005,59.46858 0.1059,60.81566 4.86671,65.28822 5.97285,5.61119 27.69846,8.01365 41.04089,4.53838 z m 82.8617,11.94202 c -0.3357,-0.875 0.1012,-3.08327 0.971,-4.90728 1.1725,-2.45876 2.4376,-3.482 4.8919,-3.95679 11.7098,-2.26528 12.8532,-2.72855 14.5676,-5.90187 1.5269,-2.82638 1.7354,-8.83273 2.0683,-59.59473 0.264,-40.24078 0.044,-57.54066 -0.766,-60.24418 -1.4059,-4.69256 -4.1366,-6.18531 -13.9091,-7.60352 -4.0423,-0.58662 -7.6002,-1.31719 -7.9065,-1.62347 -0.3062,-0.30628 0.2685,-2.38727 1.2774,-4.62442 l 1.8342,-4.06755 43.0722,0.3222 43.0723,0.32219 6.786,2.62411 c 12.6322,4.88481 19.3703,11.44016 22.3782,21.77124 4.338,14.89953 -2.2592,30.31438 -16.3859,38.28696 -2.903,1.63841 -5.2783,3.10066 -5.2783,3.24947 0,0.1488 2.8125,1.2877 6.25,2.53088 3.4375,1.24318 8.1494,3.36357 10.4709,4.71197 6.056,3.51751 13.7753,12.36896 15.6916,17.99298 8.1408,23.89176 -5.1525,46.74716 -33.1709,57.03162 -12.5881,4.62057 -19.0502,5.19875 -58.523,5.23619 -32.7266,0.031 -36.8487,-0.14049 -37.3919,-1.556 z m 85.3946,-11.919 c 6.7752,-2.01199 14.2889,-8.81469 17.3527,-15.71068 3.2111,-7.22712 3.3631,-21.10432 0.3044,-27.77943 -6.3067,-13.76306 -18.0977,-19.63501 -41.5958,-20.71473 -10.0872,-0.4635 -13.0661,-0.29491 -14.4038,0.81519 -1.5335,1.2726 -1.6271,3.70659 -1.032,26.83505 0.5916,22.99473 0.8556,25.85116 2.7512,29.76695 3.2438,6.70083 6.868,8.08693 21.4705,8.21159 6.31,0.0539 11.9665,-0.47768 15.1528,-1.42394 z m -5.9703,-76.65763 c 5.8262,-1.46705 12.2927,-7.67032 14.0192,-13.4485 2.0568,-6.88388 1.5541,-17.14567 -1.1215,-22.89126 -4.8577,-10.43157 -14.3663,-15.29636 -31.6885,-16.21265 -14.7776,-0.78168 -13.9437,-2.18111 -14.0277,23.54136 -0.037,11.37321 -0.2698,22.24637 -0.5172,24.16256 -0.2473,1.9162 -0.2311,4.0537 0.036,4.75 0.6403,1.66865 26.7572,1.74589 33.2996,0.0985 z m 86.249,88.99257 c -17.4973,-4.97208 -18.6789,-29.21169 -1.7685,-36.27732 15.1644,-6.33609 30.1628,8.60728 24.8367,24.74557 -1.4917,4.52009 -7.7734,10.25338 -12.7474,11.63458 -4.4716,1.24169 -5.6299,1.23015 -10.3208,-0.10283 z m 13.03,-3.07505 c 16.2974,-8.23319 10.4688,-32.75 -7.786,-32.75 -9.4731,0 -17.1948,7.75404 -17.2275,17.29966 -0.019,5.44522 1.5362,8.99715 5.6442,12.893 5.5607,5.27356 12.2456,6.15616 19.3693,2.55734 z m -14.3633,-3.41667 c -0.3667,-0.36666 -0.6667,-5.99166 -0.6667,-12.5 l 0,-11.83333 4.5657,0 c 4.5495,0 8.2732,1.3093 9.669,3.3997 1.4194,2.12581 0.7518,6.63146 -1.2347,8.33233 -1.1,0.94185 -2,2.30537 -2,3.03005 0,0.72468 0.9,3.08174 2,5.23792 2.3557,4.61762 2.4099,5 0.7083,5 -0.7104,0 -2.5055,-2.475 -3.9891,-5.5 -1.9368,-3.94895 -3.2646,-5.5 -4.7083,-5.5 -1.7708,0 -2.0109,0.65676 -2.0109,5.5 0,5.09522 -0.6744,6.49224 -2.3333,4.83333 z m 10.9259,-15.84632 c 0.8561,-3.41102 -1.117,-5.48701 -5.215,-5.48701 -3.2739,0 -3.3776,0.12286 -3.3776,4 0,3.99681 0,4 3.9809,4 3.4179,0 4.0702,-0.35546 4.6117,-2.51299 z M 323.58181,551.98509 c -0.84591,-3.3594 -2.06467,-5.00981 -5.54547,-7.50954 -6.12439,-4.3982 -21.97236,-20.20053 -28.76762,-28.68478 -16.80616,-20.98338 -28.54768,-45.13631 -33.93481,-69.80569 -2.63429,-12.06327 -3.56045,-35.72507 -1.98738,-50.77436 5.11951,-48.9775 26.55504,-93.05814 59.77353,-122.91995 8.98969,-8.0813 11.26451,-11.0788 12.8271,-16.90214 l 1.23376,-4.59786 2.70262,6 c 4.30812,9.56434 8.37043,15.40847 17.03019,24.5 26.12741,27.43011 41.96907,55.45748 52.00036,92 4.55847,16.60584 5.91095,29.57652 5.21107,49.97559 -1.08901,31.74087 -10.00314,59.11191 -27.63573,84.85618 -10.56283,15.42214 -33.1792,37.82752 -36.78647,36.44328 -0.83158,-0.3191 -2.73098,-2.50238 -4.22089,-4.85173 l -2.70894,-4.27155 -3.3691,10.42412 c -1.853,5.73326 -3.67711,10.42411 -4.05357,10.42411 -0.37646,0 -1.17235,-1.93756 -1.76865,-4.30568 z"
         id="path8985"
         inkscape:connector-curvature="0" />
      <path
         style="fill:#56b542"
         d="m 325.67923,795.74563 c -11.31672,-3.04733 -19.52893,-9.23641 -23.77718,-17.91952 -3.01469,-6.16181 -3.47278,-13.70224 -1.11001,-18.27134 1.82138,-3.52215 9.56947,-10.68631 17.80538,-16.46347 3.20712,-2.24967 5.83114,-4.40677 5.83114,-4.79355 0,-0.38678 -1.76705,-1.50006 -3.92678,-2.47396 -2.15973,-0.97391 -5.06086,-2.95475 -6.44695,-4.40188 -2.84973,-2.9752 -5.9764,-9.7556 -5.1301,-11.12494 0.30788,-0.49816 4.3722,-3.20856 9.03181,-6.0231 4.65961,-2.81454 8.47202,-5.75566 8.47202,-6.53583 0,-0.78016 -2.62649,-2.74433 -5.83664,-4.36481 -6.60246,-3.33291 -11.47045,-8.35938 -14.5577,-15.03165 -1.71825,-3.71352 -2.10566,-6.48268 -2.10566,-15.05081 0,-9.48121 0.27227,-11.05446 2.80615,-16.21444 4.91436,-10.00758 15.48266,-17.33108 30.7517,-21.30994 9.33922,-2.43365 20.87406,-1.60246 33.04558,2.38122 12.50244,4.09199 21.4158,4.30382 28.24763,0.67129 l 4.64894,-2.47186 -0.0147,4.72186 c -0.0291,9.32385 -5.23265,13.81053 -14.72438,12.69591 l -5.23912,-0.61523 0.73912,3.32059 c 1.32891,5.9703 0.76321,18.07916 -1.09797,23.50237 -4.89484,14.26287 -20.06169,24.57765 -39.40114,26.79623 -9.95634,1.14218 -14.29692,6.48685 -9.31452,11.46925 2.70506,2.70506 7.24989,3.6214 24.55275,4.95034 26.9158,2.06726 34.34626,4.89196 39.94943,15.18683 2.43869,4.48068 2.86687,6.38206 2.8271,12.55404 -0.0998,15.48452 -11.12701,30.19969 -29.63059,39.54027 -12.71973,6.4209 -33.40722,8.77351 -46.39527,5.27613 z m 43.47638,-13.40559 c 6.12066,-2.66488 12.48803,-9.14092 14.25669,-14.49999 1.81687,-5.50519 0.83175,-12.79134 -2.28129,-16.87274 -4.76569,-6.24814 -13.98348,-9.17222 -32.44982,-10.29379 -12.30325,-0.74725 -16.57923,0.45306 -23.61235,6.62823 -11.45336,10.05618 -9.56561,24.38707 4.30901,32.71188 7.22649,4.33592 11.64941,5.23568 24.05071,4.89266 8.27772,-0.22896 11.60629,-0.7721 15.72705,-2.56625 z M 355.1623,695.61283 c 10.34062,-4.90695 14.09935,-25.70678 7.21526,-39.92741 -6.87805,-14.20815 -27.34082,-16.8816 -35.39932,-4.6249 -6.81761,10.36938 -5.01171,29.9439 3.60759,39.10334 6.27539,6.66865 16.99682,9.04575 24.57647,5.44897 z M 67.54089,736.71022 c -21.96525,-5.90719 -35.053,-24.72331 -35.09755,-50.45935 -0.0265,-15.31757 4.39504,-26.65525 14.09781,-36.14941 16.19596,-15.84774 44.71103,-20.47253 64.80634,-10.51078 10.63071,5.2699 20.01053,17.69535 23.17513,30.70009 1.68508,6.92474 1.67293,20.80548 -0.0245,28 -4.5261,19.18361 -18.98808,33.26339 -39.52964,38.48497 -7.40522,1.88237 -20.29908,1.85157 -27.42757,-0.0655 z m 32.46006,-11.2112 c 2.16019,-1.10749 4.91813,-3.07551 6.12876,-4.37339 5.607,-6.01105 8.97816,-20.61724 7.93192,-34.36648 -1.8909,-24.84926 -14.35753,-40.92866 -32.75315,-42.24486 -5.94841,-0.42561 -7.519,-0.14555 -12.29893,2.19305 -6.29959,3.08211 -10.93458,8.66763 -13.02005,15.69019 -6.14374,20.68819 0.5859,47.88956 14.64402,59.1915 8.26406,6.64384 20.78371,8.31071 29.36743,3.90999 z m 355.42761,11.03917 c -18.30543,-4.95851 -30.14892,-19.11293 -33.72158,-40.30139 -4.95903,-29.41076 9.76274,-51.92783 39.23754,-60.01413 10.21401,-2.80217 24.90809,-2.37117 33.67592,0.98776 12.03331,4.60993 21.76959,14.59606 26.89029,27.58034 2.08866,5.29609 2.35994,7.58379 2.31236,19.5 -0.0451,11.29079 -0.40977,14.46866 -2.22859,19.41927 -7.61623,20.73052 -25.88485,33.31459 -49.66594,34.21164 -7.38966,0.27874 -11.69672,-0.0824 -16.5,-1.38349 z m 29.5685,-9.72985 c 8.15128,-2.45031 13.27633,-8.51336 16.07541,-19.01757 1.77938,-6.67758 1.68883,-24.46316 -0.16457,-32.32495 -4.27064,-18.11527 -15.47485,-29.55611 -30.24363,-30.88237 -8.4507,-0.75889 -13.63963,1.016 -19.18643,6.5628 -5.9701,5.9701 -8.0907,11.83205 -8.77435,24.25488 -0.96174,17.47603 3.20208,31.87375 12.00265,41.50298 9.07035,9.9244 19.20272,13.23739 30.29092,9.90423 z m -325.37035,5.73451 0.30185,-4.60365 5.77388,-1.14809 c 3.17563,-0.63146 6.31456,-1.68878 6.9754,-2.34962 0.66084,-0.66084 1.51807,-4.67759 1.90497,-8.92612 1.04787,-11.50664 0.98714,-56.0919 -0.0791,-58.08421 -0.86606,-1.61825 -5.5321,-4.07934 -14.32513,-7.55574 -7.58766,-2.99985 -3.88491,-6.43839 9.75,-9.05429 4.95,-0.94968 12.49497,-2.82945 16.76661,-4.17727 4.27163,-1.34783 8.26522,-2.14244 8.87463,-1.7658 0.7171,0.4432 0.93554,3.09556 0.61913,7.51782 -0.2689,3.75816 -0.29274,7.02919 -0.053,7.26895 0.23976,0.23976 3.70389,-1.90874 7.69808,-4.77443 25.03019,-17.95834 47.30125,-13.93222 56.72996,10.25555 2.03554,5.22182 2.24675,7.93036 2.81858,36.14482 0.33998,16.775 0.9447,31.02809 1.34383,31.67354 0.77265,1.24949 8.53996,4.01455 12.70216,4.52179 2.25116,0.27434 2.5,0.75258 2.5,4.80467 l 0,4.5 -26,0 -26,0 -0.31823,-3.31532 c -0.42988,-4.47844 0.95302,-5.81224 6.83514,-6.59254 8.22821,-1.09151 8.17815,-0.87804 7.80418,-33.27512 -0.30234,-26.19288 -0.44625,-28.05057 -2.46468,-31.81702 -2.73662,-5.10662 -4.77466,-6.91278 -10.81538,-9.58487 -3.86224,-1.70846 -6.15929,-2.05905 -10.96382,-1.67339 -7.55523,0.60646 -15.82275,4.07293 -19.15289,8.03056 l -2.52951,3.00616 0.30259,30.94251 c 0.3386,34.6239 -0.007,33.0907 7.72633,34.32392 8.49946,1.35548 8.21508,1.14845 7.88215,5.73819 l -0.30588,4.21692 -26.30185,0.17787 -26.30184,0.17786 0.30184,-4.60365 z m -328.89564,2.09386 c -1.02208,-2.6635 0.26085,-5.70729 2.69749,-6.39989 1.375,-0.39083 4.44738,-1.24209 6.8275,-1.89169 6.99046,-1.90787 7.1725,-2.89641 7.1725,-38.94966 l 0,-30.95954 -2.62408,-2.0641 c -1.44325,-1.13526 -5.31157,-3.04401 -8.59628,-4.24168 -5.95992,-2.17309 -7.92037,-4.09865 -6.06346,-5.95556 0.53996,-0.53996 5.35825,-1.87581 10.70732,-2.96855 5.34906,-1.09274 13.17953,-3.08996 17.40103,-4.43827 4.22151,-1.34831 8.07759,-2.45721 8.56907,-2.46423 0.50229,-0.007 0.60758,3.06471 0.24044,7.01495 -0.83716,9.00749 0.2213,9.50321 8.41315,3.94023 9.93384,-6.74594 18.44499,-10.19394 26.49303,-10.73272 9.68448,-0.64834 15.65818,1.95937 22.95197,10.01927 l 5.40202,5.96942 6.98628,-4.64447 c 16.02194,-10.65136 28.78971,-13.84261 40.20846,-10.04991 7.2326,2.40229 14.77051,9.94632 17.98682,18.00145 2.29798,5.7552 2.39534,7.06621 2.71813,36.59951 0.40214,36.79398 -0.73972,33.85932 14.51446,37.30292 2.5333,0.57188 2.77815,0.99462 2.5,4.31623 l -0.30836,3.68225 -25.25001,0.0341 -25.25002,0.034 2e-5,-3.73095 c 10e-6,-3.25585 0.35019,-3.80848 2.75001,-4.33981 6.50944,-1.44122 9.3427,-2.72451 10.50768,-4.75933 0.90392,-1.57884 1.24232,-9.38835 1.24232,-28.66991 l 0,-26.5 -2.87226,-5.84956 c -3.35928,-6.84141 -9.16196,-11.15359 -16.50761,-12.26738 -5.80503,-0.88019 -15.86008,1.58704 -22.0983,5.42231 l -4.47816,2.75319 0.32811,31.89938 c 0.18045,17.54465 0.54286,32.45901 0.80533,33.14301 0.54076,1.40919 7.44068,4.39905 10.152,4.39905 3.48155,0 5.27041,2.2524 4.57004,5.75424 l -0.64915,3.24576 -25.375,0 -25.375,0 0,-3.94968 0,-3.94967 6.03521,-1.18736 c 9.32674,-1.83492 9.60517,-2.46273 10.49378,-23.6614 1.39554,-33.29213 -1.43274,-46.18098 -11.41783,-52.03264 -3.63932,-2.13277 -5.75816,-2.63101 -11.18883,-2.63101 -5.8119,0 -7.7407,0.52401 -14.56083,3.95588 -4.87407,2.45262 -8.34895,4.9059 -9.14424,6.45588 -0.98,1.90999 -1.216,9.6602 -1,32.83918 0.28163,30.21988 0.29171,30.34644 2.56398,32.18559 1.25468,1.01552 4.76713,2.36247 7.80545,2.99323 l 5.52421,1.14682 -0.30545,3.66759 -0.30545,3.66759 -25.36841,0.0232 c -18.83236,0.0172 -25.4871,-0.28608 -25.82908,-1.17727 z M 316.85084,543.14495 C 277.37962,509.45549 255.7595,468.81447 252.8251,422.79077 c -1.66472,-26.1098 5.40393,-63.22113 17.04102,-89.4677 10.16631,-22.9293 22.16384,-39.97513 41.59013,-59.09035 12.24721,-12.05109 13.87864,-14.05177 14.6779,-18 l 0.89922,-4.44195 5.20684,10 c 4.19529,8.05725 7.36076,12.33131 16.29372,22 17.60877,19.05906 26.34187,31.70013 36.26966,52.5 21.0164,44.03178 25.02784,87.08699 12.01889,129 -6.74243,21.72316 -17.77439,41.17952 -33.20389,58.55953 -8.67599,9.77277 -20.39078,19.94047 -22.97455,19.94047 -4.29031,0 -8.86177,-11.97619 -10.68795,-28 l -1.13967,-10 -0.73408,9 c -0.92235,11.30828 -4.18212,30.42834 -5.39439,31.64061 -0.55311,0.55311 -2.86109,-0.74634 -5.83711,-3.28643 z"
         id="path8983"
         inkscape:connector-curvature="0" />
      <path
         style="fill:#46a83b"
         d="m 325.4528,795.68768 c -15.3227,-4.11759 -26.02424,-15.69035 -26.02424,-28.14291 0,-2.94433 0.64045,-6.59181 1.42322,-8.10553 1.79862,-3.47814 8.15273,-9.33724 16.82678,-15.5159 3.7125,-2.64447 6.75,-5.15028 6.75,-5.56847 0,-0.41819 -1.76705,-1.55718 -3.92678,-2.53108 -2.15973,-0.97391 -5.06086,-2.95475 -6.44695,-4.40188 -2.85558,-2.98132 -5.58974,-9.01649 -4.92004,-10.86012 0.24553,-0.67594 4.22449,-3.51104 8.84212,-6.30022 4.61763,-2.78919 8.60359,-5.40763 8.85769,-5.81877 0.77994,-1.26197 -0.70657,-2.55816 -5.545,-4.83508 -6.75675,-3.17968 -11.40558,-7.68952 -14.57095,-14.13535 -2.5179,-5.12733 -2.78932,-6.70593 -2.78222,-16.1816 0.007,-9.12357 0.33037,-11.15544 2.46807,-15.5 5.07108,-10.30626 16.09415,-18.10859 31.15165,-22.0497 9.17896,-2.40249 20.80387,-1.53369 32.63729,2.43918 12.20009,4.09597 22.55912,4.33058 28.98512,0.65645 l 4.25,-2.42997 0,4.49168 c 0,9.35639 -5.68018,14.17416 -15.17223,12.86867 l -4.88262,-0.67153 0.77742,4.34761 c 1.17456,6.56848 0.62557,17.82183 -1.10295,22.60859 -5.06641,14.03036 -18.9987,23.7859 -37.75843,26.43887 -4.93932,0.69852 -8.94511,1.86492 -10.43823,3.03941 -3.73898,2.94108 -3.08693,6.98346 1.707,10.58264 0.91824,0.6894 9.21455,1.87916 19,2.72477 9.55352,0.82557 20.04557,1.97606 23.31567,2.55666 16.56193,2.94052 24.90857,14.33026 22.36905,30.52459 -2.67074,17.03114 -20.80215,33.8701 -42.42416,39.40008 -9.30534,2.37991 -25.22768,2.55595 -33.36628,0.36891 z m 43.47576,-13.24433 c 9.46806,-4.27015 15.43395,-12.33927 15.47804,-20.9347 0.0689,-13.4354 -9.93718,-19.26886 -35.73982,-20.836 -10.72779,-0.65156 -11.31226,-0.58036 -16.64267,2.02757 -6.56703,3.21295 -13.28912,10.4402 -14.1933,15.25993 -1.60597,8.56055 2.67006,16.72727 11.54704,22.05348 7.1817,4.30904 11.58958,5.21181 24.05071,4.92577 8.39442,-0.19269 11.50266,-0.69322 15.5,-2.49605 z m -11.59928,-88.08188 c 2.00677,-1.42895 4.39074,-4.63718 5.9299,-7.98018 2.14566,-4.66031 2.56546,-7.00484 2.52296,-14.09052 -0.11474,-19.13207 -9.63353,-29.94347 -25.36178,-28.80579 -7.18911,0.52002 -11.78483,3.71607 -15.13943,10.5286 -3.24388,6.58768 -3.21066,19.16182 0.0729,27.58873 2.4416,6.2661 7.48653,12.05751 12.46555,14.31002 4.90297,2.21812 15.38727,1.38471 19.5099,-1.55086 z M 68.06264,736.70431 c -16.31437,-3.94885 -27.07515,-14.44026 -33.2458,-32.41354 -2.88662,-8.40788 -2.65228,-29.40457 0.41411,-37.1037 5.47067,-13.73579 15.71339,-23.33084 30.81794,-28.86922 20.97722,-7.69172 42.41031,-4.12687 55.82169,9.2845 9.56537,9.56537 13.88717,21.18588 13.8308,37.18842 -0.0391,11.08659 -2.87548,21.74212 -7.91097,29.71884 -11.30311,17.90529 -37.39389,27.60056 -59.72777,22.1947 z m 32.06252,-11.25876 c 8.60455,-4.38971 13.05094,-13.63752 13.99318,-29.10362 1.76192,-28.92068 -11.78457,-50.30869 -32.82443,-51.82518 -12.53611,-0.90357 -21.65309,5.75397 -25.62219,18.71022 -2.08439,6.80403 -2.26245,24.03527 -0.33133,32.0638 2.91476,12.11794 9.97836,23.29688 17.75898,28.10557 8.43351,5.21219 19.22232,6.03025 27.02579,2.04921 z m 356.65128,11.42541 c -16.63737,-4.03562 -29.39403,-16.94376 -33.68023,-34.08019 -5.20709,-20.81823 -1.46908,-38.51788 10.86572,-51.44963 13.29596,-13.93943 37.63288,-20.48242 56.61111,-15.21991 20.88109,5.79015 33.82596,24.22417 33.82596,48.16954 0,21.36182 -9.96711,38.49805 -27.3366,46.99918 -4.47361,2.18952 -10.81588,4.66041 -14.09394,5.49088 -7.0719,1.79161 -19.00814,1.83268 -26.19202,0.0901 z m 33.49517,-12.28248 c 3.66318,-2.26155 5.39833,-4.32827 8.13116,-9.68491 3.35341,-6.57306 3.48762,-7.26873 3.85989,-20.00807 0.29101,-9.95859 -0.0158,-14.78225 -1.24982,-19.65148 -4.93798,-19.48402 -17.35488,-30.99287 -33.37179,-30.93129 -16.0522,0.0617 -25.21249,12.75022 -25.21249,34.92341 0,25.0753 10.95492,43.59599 28.5,48.18287 5.77268,1.50918 14.34578,0.25465 19.34305,-2.83053 z m -330.84305,8.07786 c 0,-3.91497 0.26786,-4.39779 2.75,-4.9568 8.47419,-1.90849 10.31424,-2.66515 11.43611,-4.70273 1.32832,-2.41258 2.58556,-59.50533 1.41322,-64.17631 -0.65052,-2.59187 -6.21603,-6.01006 -13.7609,-8.45158 -4.11172,-1.33055 -5.5941,-3.76105 -3.54417,-5.81099 0.75227,-0.75226 5.73587,-2.2601 11.07467,-3.35074 5.33881,-1.09065 13.29732,-3.1172 17.6856,-4.50346 4.38828,-1.38626 8.48115,-2.20993 9.09527,-1.83038 0.73865,0.45651 0.9248,2.97764 0.54996,7.44866 -0.31164,3.71722 -0.32891,6.99628 -0.0384,7.28681 0.29053,0.29052 3.23754,-1.46625 6.54892,-3.90395 7.63067,-5.61738 17.11169,-10.15764 23.89932,-11.44489 11.26509,-2.13638 23.13019,2.84364 29.63106,12.43674 5.99583,8.84786 6.48977,11.98284 7.15542,45.41482 0.71008,35.66378 -0.68671,32.20067 14.3539,35.588 2.30939,0.5201 2.74755,1.13701 2.73469,3.85028 -0.008,1.77702 -0.34592,3.71593 -0.75,4.30868 -1.03107,1.51248 -50.45472,1.52875 -51.46938,0.0169 -1.17568,-1.75174 -0.8778,-6.26092 0.48469,-7.33717 0.6875,-0.54307 3.19743,-1.23503 5.57762,-1.5377 2.38018,-0.30267 5.22285,-1.36049 6.31703,-2.35071 1.9122,-1.73052 1.97712,-2.90796 1.67239,-30.33474 -0.30361,-27.32531 -0.41198,-28.71197 -2.55781,-32.72642 -4.25486,-7.96007 -12.32581,-11.90142 -22.6539,-11.06276 -6.82517,0.55421 -14.19289,3.61511 -18.0955,7.51773 l -2.58919,2.58919 0.28968,31.40557 c 0.32419,35.14672 -0.0293,33.55244 7.71341,34.78723 8.49946,1.35548 8.21508,1.14845 7.88215,5.73819 l -0.30586,4.21696 -26.25,0.10652 -26.25,0.10652 0,-4.33747 z m -328.705,1.95081 c -0.24924,-0.64951 -0.30508,-2.21635 -0.12408,-3.48187 0.27287,-1.90789 1.41359,-2.58387 6.67779,-3.95715 10.27393,-2.68019 9.60911,-0.15067 9.93974,-37.81902 l 0.28844,-32.8627 -2.66253,-2.09434 c -1.46439,-1.15189 -5.35001,-3.07425 -8.63472,-4.27192 -5.95992,-2.17309 -7.92037,-4.09865 -6.06346,-5.95556 0.53996,-0.53996 5.35825,-1.87581 10.70732,-2.96855 5.34906,-1.09274 13.1465,-3.07315 17.32763,-4.40091 4.18114,-1.32776 8.0191,-2.15636 8.52881,-1.84135 0.53032,0.32776 0.63457,3.30094 0.24372,6.95068 -0.91024,8.49963 0.24724,8.7911 9.89638,2.49207 11.37552,-7.42601 17.47858,-9.58312 27.07996,-9.57132 9.92705,0.0122 14.15969,2.00927 21.34518,10.07122 l 5.07212,5.69079 8.00242,-5.25374 c 10.30661,-6.76649 19.0324,-10.31 26.70178,-10.84351 15.99289,-1.11251 27.37457,7.83027 31.97994,25.1272 1.00727,3.78314 1.378,12.56053 1.38669,32.83181 0.007,15.21752 0.2914,28.39666 0.63305,29.28699 0.827,2.15512 5.14945,4.30226 11.32885,5.6275 4.54018,0.9737 5.04842,1.35228 5.03466,3.75016 -0.008,1.46693 -0.34592,3.11714 -0.75,3.66714 -0.45547,0.61994 -10.14115,1 -25.48469,1 l -24.75,0 0,-3.58605 c 0,-3.52835 0.0959,-3.61272 5.96131,-5.24344 4.06634,-1.13054 6.35758,-2.3747 7.20794,-3.91395 1.63357,-2.95695 2.36579,-40.37634 0.99995,-51.10175 -1.35168,-10.61418 -4.72209,-16.14702 -12.17407,-19.98485 -4.80662,-2.47546 -6.32133,-2.7755 -12.08925,-2.39468 -6.82131,0.45037 -15.53523,3.72795 -19.48529,7.32903 -2.0409,1.86059 -2.07134,2.48551 -1.6442,33.75149 0.49304,36.08942 0.21498,34.92052 8.60643,36.1789 6.1128,0.91667 7.54633,2.20649 6.90783,6.2153 l -0.51765,3.25 -25.3865,0 -25.3865,0 0,-3.88871 c 0,-3.70937 0.17294,-3.91921 3.75,-4.55008 7.66357,-1.3516 10.00476,-2.55495 11.36638,-5.84218 1.87635,-4.5299 1.92366,-50.37987 0.0585,-56.71903 -2.94773,-10.01868 -9.21394,-15.51438 -18.99331,-16.65783 -7.80874,-0.91303 -23.39524,5.45145 -26.2042,10.70005 -0.76242,1.42459 -1.01004,11.54536 -0.793,32.41125 0.29001,27.881 0.46582,30.50571 2.16928,32.3865 1.01953,1.12567 3.15703,2.29718 4.75,2.60335 9.75632,1.8752 9.03228,1.42739 8.70122,5.38158 l -0.30491,3.64187 -25.37592,0.0203 c -18.60272,0.0149 -25.49687,-0.29494 -25.82908,-1.16066 z M 316.27086,542.0752 c -13.50246,-10.66467 -30.78459,-30.72014 -40.74577,-47.28443 -9.73212,-16.18337 -17.66202,-37.34167 -20.6134,-55 -4.06229,-24.30498 -1.09056,-57.83137 7.61872,-85.95288 3.13179,-10.11228 12.63475,-32.55808 13.77396,-32.53383 0.3433,0.007 12.54919,35.58233 27.12419,79.0556 l 26.5,79.04232 0.64412,-12.8056 c 0.69008,-13.71943 -0.79617,-190.78488 -1.70651,-203.30561 l -0.5453,-7.5 4.23442,7.87401 c 2.91449,5.41959 7.4755,11.34213 14.63209,19 23.76168,25.42609 36.89254,47.25088 47.30523,78.62599 5.93394,17.87991 7.59977,25.92967 8.89905,43.00275 1.43581,18.86704 0.024,34.9727 -4.68936,53.49725 -7.08062,27.82812 -19.99891,50.26401 -41.23134,71.60872 -6.89832,6.93479 -13.55945,13.14056 -14.80252,13.7906 -5.48445,2.86797 -10.43293,-9.03583 -12.6567,-30.4463 -0.73995,-7.12416 -1.39887,-10.91458 -1.46427,-8.42316 -0.29218,11.13042 -4.66355,40.57068 -6.16151,41.49647 -0.42504,0.26269 -3.17684,-1.42116 -6.1151,-3.7419 z"
         id="path8981"
         inkscape:connector-curvature="0" />
      <path
         style="fill:#3e9838"
         d="m 325.4528,795.68768 c -15.3227,-4.11759 -26.02424,-15.69035 -26.02424,-28.14291 0,-2.94433 0.64045,-6.59181 1.42322,-8.10553 1.79862,-3.47814 8.15273,-9.33724 16.82678,-15.5159 3.7125,-2.64447 6.75,-5.15028 6.75,-5.56847 0,-0.41819 -1.76705,-1.55718 -3.92678,-2.53108 -2.15973,-0.97391 -5.06086,-2.95475 -6.44695,-4.40188 -2.85558,-2.98132 -5.58974,-9.01649 -4.92004,-10.86012 0.24553,-0.67594 4.22449,-3.51104 8.84212,-6.30022 4.61763,-2.78919 8.60359,-5.40763 8.85769,-5.81877 0.77994,-1.26197 -0.70657,-2.55816 -5.545,-4.83508 -6.75675,-3.17968 -11.40558,-7.68952 -14.57095,-14.13535 -2.5179,-5.12733 -2.78932,-6.70593 -2.78222,-16.1816 0.007,-9.12357 0.33037,-11.15544 2.46807,-15.5 5.07108,-10.30626 16.09415,-18.10859 31.15165,-22.0497 9.17896,-2.40249 20.80387,-1.53369 32.63729,2.43918 12.20009,4.09597 22.55912,4.33058 28.98512,0.65645 l 4.25,-2.42997 0,4.49168 c 0,9.35639 -5.68018,14.17416 -15.17223,12.86867 l -4.88262,-0.67153 0.77742,4.34761 c 1.17456,6.56848 0.62557,17.82183 -1.10295,22.60859 -5.06641,14.03036 -18.9987,23.7859 -37.75843,26.43887 -4.93932,0.69852 -8.94511,1.86492 -10.43823,3.03941 -3.73898,2.94108 -3.08693,6.98346 1.707,10.58264 0.91824,0.6894 9.21455,1.87916 19,2.72477 9.55352,0.82557 20.04557,1.97606 23.31567,2.55666 16.56193,2.94052 24.90857,14.33026 22.36905,30.52459 -2.67074,17.03114 -20.80215,33.8701 -42.42416,39.40008 -9.30534,2.37991 -25.22768,2.55595 -33.36628,0.36891 z m 43.47576,-13.24433 c 9.46806,-4.27015 15.43395,-12.33927 15.47804,-20.9347 0.0689,-13.4354 -9.93718,-19.26886 -35.73982,-20.836 -10.72779,-0.65156 -11.31226,-0.58036 -16.64267,2.02757 -6.56703,3.21295 -13.28912,10.4402 -14.1933,15.25993 -1.60597,8.56055 2.67006,16.72727 11.54704,22.05348 7.1817,4.30904 11.58958,5.21181 24.05071,4.92577 8.39442,-0.19269 11.50266,-0.69322 15.5,-2.49605 z m -11.59928,-88.08188 c 2.00677,-1.42895 4.39074,-4.63718 5.9299,-7.98018 2.14566,-4.66031 2.56546,-7.00484 2.52296,-14.09052 -0.11474,-19.13207 -9.63353,-29.94347 -25.36178,-28.80579 -7.18911,0.52002 -11.78483,3.71607 -15.13943,10.5286 -3.24388,6.58768 -3.21066,19.16182 0.0729,27.58873 2.4416,6.2661 7.48653,12.05751 12.46555,14.31002 4.90297,2.21812 15.38727,1.38471 19.5099,-1.55086 z M 68.06264,736.70431 c -16.31437,-3.94885 -27.07515,-14.44026 -33.2458,-32.41354 -2.88662,-8.40788 -2.65228,-29.40457 0.41411,-37.1037 5.47067,-13.73579 15.71339,-23.33084 30.81794,-28.86922 20.97722,-7.69172 42.41031,-4.12687 55.82169,9.2845 9.56537,9.56537 13.88717,21.18588 13.8308,37.18842 -0.0391,11.08659 -2.87548,21.74212 -7.91097,29.71884 -11.30311,17.90529 -37.39389,27.60056 -59.72777,22.1947 z m 32.06252,-11.25876 c 8.60455,-4.38971 13.05094,-13.63752 13.99318,-29.10362 1.76192,-28.92068 -11.78457,-50.30869 -32.82443,-51.82518 -12.53611,-0.90357 -21.65309,5.75397 -25.62219,18.71022 -2.08439,6.80403 -2.26245,24.03527 -0.33133,32.0638 2.91476,12.11794 9.97836,23.29688 17.75898,28.10557 8.43351,5.21219 19.22232,6.03025 27.02579,2.04921 z m 356.65128,11.42541 c -16.63737,-4.03562 -29.39403,-16.94376 -33.68023,-34.08019 -5.20709,-20.81823 -1.46908,-38.51788 10.86572,-51.44963 13.29596,-13.93943 37.63288,-20.48242 56.61111,-15.21991 20.88109,5.79015 33.82596,24.22417 33.82596,48.16954 0,21.36182 -9.96711,38.49805 -27.3366,46.99918 -4.47361,2.18952 -10.81588,4.66041 -14.09394,5.49088 -7.0719,1.79161 -19.00814,1.83268 -26.19202,0.0901 z m 33.49517,-12.28248 c 3.66318,-2.26155 5.39833,-4.32827 8.13116,-9.68491 3.35341,-6.57306 3.48762,-7.26873 3.85989,-20.00807 0.29101,-9.95859 -0.0158,-14.78225 -1.24982,-19.65148 -4.93798,-19.48402 -17.35488,-30.99287 -33.37179,-30.93129 -16.0522,0.0617 -25.21249,12.75022 -25.21249,34.92341 0,25.0753 10.95492,43.59599 28.5,48.18287 5.77268,1.50918 14.34578,0.25465 19.34305,-2.83053 z m -330.84305,8.07786 c 0,-3.91497 0.26786,-4.39779 2.75,-4.9568 8.47419,-1.90849 10.31424,-2.66515 11.43611,-4.70273 1.32832,-2.41258 2.58556,-59.50533 1.41322,-64.17631 -0.65052,-2.59187 -6.21603,-6.01006 -13.7609,-8.45158 -4.11172,-1.33055 -5.5941,-3.76105 -3.54417,-5.81099 0.75227,-0.75226 5.73587,-2.2601 11.07467,-3.35074 5.33881,-1.09065 13.29732,-3.1172 17.6856,-4.50346 4.38828,-1.38626 8.48115,-2.20993 9.09527,-1.83038 0.73865,0.45651 0.9248,2.97764 0.54996,7.44866 -0.31164,3.71722 -0.32891,6.99628 -0.0384,7.28681 0.29053,0.29052 3.23754,-1.46625 6.54892,-3.90395 7.63067,-5.61738 17.11169,-10.15764 23.89932,-11.44489 11.26509,-2.13638 23.13019,2.84364 29.63106,12.43674 5.99583,8.84786 6.48977,11.98284 7.15542,45.41482 0.71008,35.66378 -0.68671,32.20067 14.3539,35.588 2.30939,0.5201 2.74755,1.13701 2.73469,3.85028 -0.008,1.77702 -0.34592,3.71593 -0.75,4.30868 -1.03107,1.51248 -50.45472,1.52875 -51.46938,0.0169 -1.17568,-1.75174 -0.8778,-6.26092 0.48469,-7.33717 0.6875,-0.54307 3.19743,-1.23503 5.57762,-1.5377 2.38018,-0.30267 5.22285,-1.36049 6.31703,-2.35071 1.9122,-1.73052 1.97712,-2.90796 1.67239,-30.33474 -0.30361,-27.32531 -0.41198,-28.71197 -2.55781,-32.72642 -4.25486,-7.96007 -12.32581,-11.90142 -22.6539,-11.06276 -6.82517,0.55421 -14.19289,3.61511 -18.0955,7.51773 l -2.58919,2.58919 0.28968,31.40557 c 0.32419,35.14672 -0.0293,33.55244 7.71341,34.78723 8.49946,1.35548 8.21508,1.14845 7.88215,5.73819 l -0.30586,4.21696 -26.25,0.10652 -26.25,0.10652 0,-4.33747 z m -328.705,1.95081 c -0.24924,-0.64951 -0.30508,-2.21635 -0.12408,-3.48187 0.27287,-1.90789 1.41359,-2.58387 6.67779,-3.95715 10.27393,-2.68019 9.60911,-0.15067 9.93974,-37.81902 l 0.28844,-32.8627 -2.66253,-2.09434 c -1.46439,-1.15189 -5.35001,-3.07425 -8.63472,-4.27192 -5.95992,-2.17309 -7.92037,-4.09865 -6.06346,-5.95556 0.53996,-0.53996 5.35825,-1.87581 10.70732,-2.96855 5.34906,-1.09274 13.1465,-3.07315 17.32763,-4.40091 4.18114,-1.32776 8.0191,-2.15636 8.52881,-1.84135 0.53032,0.32776 0.63457,3.30094 0.24372,6.95068 -0.91024,8.49963 0.24724,8.7911 9.89638,2.49207 11.37552,-7.42601 17.47858,-9.58312 27.07996,-9.57132 9.92705,0.0122 14.15969,2.00927 21.34518,10.07122 l 5.07212,5.69079 8.00242,-5.25374 c 10.30661,-6.76649 19.0324,-10.31 26.70178,-10.84351 15.99289,-1.11251 27.37457,7.83027 31.97994,25.1272 1.00727,3.78314 1.378,12.56053 1.38669,32.83181 0.007,15.21752 0.2914,28.39666 0.63305,29.28699 0.827,2.15512 5.14945,4.30226 11.32885,5.6275 4.54018,0.9737 5.04842,1.35228 5.03466,3.75016 -0.008,1.46693 -0.34592,3.11714 -0.75,3.66714 -0.45547,0.61994 -10.14115,1 -25.48469,1 l -24.75,0 0,-3.58605 c 0,-3.52835 0.0959,-3.61272 5.96131,-5.24344 4.06634,-1.13054 6.35758,-2.3747 7.20794,-3.91395 1.63357,-2.95695 2.36579,-40.37634 0.99995,-51.10175 -1.35168,-10.61418 -4.72209,-16.14702 -12.17407,-19.98485 -4.80662,-2.47546 -6.32133,-2.7755 -12.08925,-2.39468 -6.82131,0.45037 -15.53523,3.72795 -19.48529,7.32903 -2.0409,1.86059 -2.07134,2.48551 -1.6442,33.75149 0.49304,36.08942 0.21498,34.92052 8.60643,36.1789 6.1128,0.91667 7.54633,2.20649 6.90783,6.2153 l -0.51765,3.25 -25.3865,0 -25.3865,0 0,-3.88871 c 0,-3.70937 0.17294,-3.91921 3.75,-4.55008 7.66357,-1.3516 10.00476,-2.55495 11.36638,-5.84218 1.87635,-4.5299 1.92366,-50.37987 0.0585,-56.71903 -2.94773,-10.01868 -9.21394,-15.51438 -18.99331,-16.65783 -7.80874,-0.91303 -23.39524,5.45145 -26.2042,10.70005 -0.76242,1.42459 -1.01004,11.54536 -0.793,32.41125 0.29001,27.881 0.46582,30.50571 2.16928,32.3865 1.01953,1.12567 3.15703,2.29718 4.75,2.60335 9.75632,1.8752 9.03228,1.42739 8.70122,5.38158 l -0.30491,3.64187 -25.37592,0.0203 c -18.60272,0.0149 -25.49687,-0.29494 -25.82908,-1.16066 z M 338.00923,541.37497 c -6.43552,-6.71724 -9.32378,-27.10725 -7.64513,-53.9717 0.58545,-9.36936 1.06446,-40.80094 1.06446,-69.84795 l 0,-52.81276 30.1919,-4.73399 c 16.60554,-2.6037 30.49985,-4.39286 30.87624,-3.9759 2.07797,2.30194 8.27316,25.92721 9.90121,37.7581 1.78683,12.98478 1.34378,37.46963 -0.91734,50.69577 -5.87066,34.33968 -21.75408,63.99299 -47.4148,88.52031 -12.35588,11.81015 -12.62466,11.95023 -16.05654,8.36812 z"
         id="path8979"
         inkscape:connector-curvature="0" />
      <path
         style="fill:#414044"
         d="m 325.4528,795.68768 c -15.3227,-4.11759 -26.02424,-15.69035 -26.02424,-28.14291 0,-2.94433 0.64045,-6.59181 1.42322,-8.10553 1.79862,-3.47814 8.15273,-9.33724 16.82678,-15.5159 3.7125,-2.64447 6.75,-5.15028 6.75,-5.56847 0,-0.41819 -1.76705,-1.55718 -3.92678,-2.53108 -2.15973,-0.97391 -5.06086,-2.95475 -6.44695,-4.40188 -2.85558,-2.98132 -5.58974,-9.01649 -4.92004,-10.86012 0.24553,-0.67594 4.22449,-3.51104 8.84212,-6.30022 4.61763,-2.78919 8.60359,-5.40763 8.85769,-5.81877 0.77994,-1.26197 -0.70657,-2.55816 -5.545,-4.83508 -6.75675,-3.17968 -11.40558,-7.68952 -14.57095,-14.13535 -2.5179,-5.12733 -2.78932,-6.70593 -2.78222,-16.1816 0.007,-9.12357 0.33037,-11.15544 2.46807,-15.5 5.07108,-10.30626 16.09415,-18.10859 31.15165,-22.0497 9.17896,-2.40249 20.80387,-1.53369 32.63729,2.43918 12.20009,4.09597 22.55912,4.33058 28.98512,0.65645 l 4.25,-2.42997 0,4.49168 c 0,9.35639 -5.68018,14.17416 -15.17223,12.86867 l -4.88262,-0.67153 0.77742,4.34761 c 1.17456,6.56848 0.62557,17.82183 -1.10295,22.60859 -5.06641,14.03036 -18.9987,23.7859 -37.75843,26.43887 -4.93932,0.69852 -8.94511,1.86492 -10.43823,3.03941 -3.73898,2.94108 -3.08693,6.98346 1.707,10.58264 0.91824,0.6894 9.21455,1.87916 19,2.72477 9.55352,0.82557 20.04557,1.97606 23.31567,2.55666 16.56193,2.94052 24.90857,14.33026 22.36905,30.52459 -2.67074,17.03114 -20.80215,33.8701 -42.42416,39.40008 -9.30534,2.37991 -25.22768,2.55595 -33.36628,0.36891 z m 43.47576,-13.24433 c 9.46806,-4.27015 15.43395,-12.33927 15.47804,-20.9347 0.0689,-13.4354 -9.93718,-19.26886 -35.73982,-20.836 -10.72779,-0.65156 -11.31226,-0.58036 -16.64267,2.02757 -6.56703,3.21295 -13.28912,10.4402 -14.1933,15.25993 -1.60597,8.56055 2.67006,16.72727 11.54704,22.05348 7.1817,4.30904 11.58958,5.21181 24.05071,4.92577 8.39442,-0.19269 11.50266,-0.69322 15.5,-2.49605 z m -11.59928,-88.08188 c 2.00677,-1.42895 4.39074,-4.63718 5.9299,-7.98018 2.14566,-4.66031 2.56546,-7.00484 2.52296,-14.09052 -0.11474,-19.13207 -9.63353,-29.94347 -25.36178,-28.80579 -7.18911,0.52002 -11.78483,3.71607 -15.13943,10.5286 -3.24388,6.58768 -3.21066,19.16182 0.0729,27.58873 2.4416,6.2661 7.48653,12.05751 12.46555,14.31002 4.90297,2.21812 15.38727,1.38471 19.5099,-1.55086 z M 68.06264,736.70431 c -16.31437,-3.94885 -27.07515,-14.44026 -33.2458,-32.41354 -2.88662,-8.40788 -2.65228,-29.40457 0.41411,-37.1037 5.47067,-13.73579 15.71339,-23.33084 30.81794,-28.86922 20.97722,-7.69172 42.41031,-4.12687 55.82169,9.2845 9.56537,9.56537 13.88717,21.18588 13.8308,37.18842 -0.0391,11.08659 -2.87548,21.74212 -7.91097,29.71884 -11.30311,17.90529 -37.39389,27.60056 -59.72777,22.1947 z m 32.06252,-11.25876 c 8.60455,-4.38971 13.05094,-13.63752 13.99318,-29.10362 1.76192,-28.92068 -11.78457,-50.30869 -32.82443,-51.82518 -12.53611,-0.90357 -21.65309,5.75397 -25.62219,18.71022 -2.08439,6.80403 -2.26245,24.03527 -0.33133,32.0638 2.91476,12.11794 9.97836,23.29688 17.75898,28.10557 8.43351,5.21219 19.22232,6.03025 27.02579,2.04921 z m 356.65128,11.42541 c -16.63737,-4.03562 -29.39403,-16.94376 -33.68023,-34.08019 -5.20709,-20.81823 -1.46908,-38.51788 10.86572,-51.44963 13.29596,-13.93943 37.63288,-20.48242 56.61111,-15.21991 20.88109,5.79015 33.82596,24.22417 33.82596,48.16954 0,21.36182 -9.96711,38.49805 -27.3366,46.99918 -4.47361,2.18952 -10.81588,4.66041 -14.09394,5.49088 -7.0719,1.79161 -19.00814,1.83268 -26.19202,0.0901 z m 33.49517,-12.28248 c 3.66318,-2.26155 5.39833,-4.32827 8.13116,-9.68491 3.35341,-6.57306 3.48762,-7.26873 3.85989,-20.00807 0.29101,-9.95859 -0.0158,-14.78225 -1.24982,-19.65148 -4.93798,-19.48402 -17.35488,-30.99287 -33.37179,-30.93129 -16.0522,0.0617 -25.21249,12.75022 -25.21249,34.92341 0,25.0753 10.95492,43.59599 28.5,48.18287 5.77268,1.50918 14.34578,0.25465 19.34305,-2.83053 z m -330.84305,8.07786 c 0,-3.91497 0.26786,-4.39779 2.75,-4.9568 8.47419,-1.90849 10.31424,-2.66515 11.43611,-4.70273 1.32832,-2.41258 2.58556,-59.50533 1.41322,-64.17631 -0.65052,-2.59187 -6.21603,-6.01006 -13.7609,-8.45158 -4.11172,-1.33055 -5.5941,-3.76105 -3.54417,-5.81099 0.75227,-0.75226 5.73587,-2.2601 11.07467,-3.35074 5.33881,-1.09065 13.29732,-3.1172 17.6856,-4.50346 4.38828,-1.38626 8.48115,-2.20993 9.09527,-1.83038 0.73865,0.45651 0.9248,2.97764 0.54996,7.44866 -0.31164,3.71722 -0.32891,6.99628 -0.0384,7.28681 0.29053,0.29052 3.23754,-1.46625 6.54892,-3.90395 7.63067,-5.61738 17.11169,-10.15764 23.89932,-11.44489 11.26509,-2.13638 23.13019,2.84364 29.63106,12.43674 5.99583,8.84786 6.48977,11.98284 7.15542,45.41482 0.71008,35.66378 -0.68671,32.20067 14.3539,35.588 2.30939,0.5201 2.74755,1.13701 2.73469,3.85028 -0.008,1.77702 -0.34592,3.71593 -0.75,4.30868 -1.03107,1.51248 -50.45472,1.52875 -51.46938,0.0169 -1.17568,-1.75174 -0.8778,-6.26092 0.48469,-7.33717 0.6875,-0.54307 3.19743,-1.23503 5.57762,-1.5377 2.38018,-0.30267 5.22285,-1.36049 6.31703,-2.35071 1.9122,-1.73052 1.97712,-2.90796 1.67239,-30.33474 -0.30361,-27.32531 -0.41198,-28.71197 -2.55781,-32.72642 -4.25486,-7.96007 -12.32581,-11.90142 -22.6539,-11.06276 -6.82517,0.55421 -14.19289,3.61511 -18.0955,7.51773 l -2.58919,2.58919 0.28968,31.40557 c 0.32419,35.14672 -0.0293,33.55244 7.71341,34.78723 8.49946,1.35548 8.21508,1.14845 7.88215,5.73819 l -0.30586,4.21696 -26.25,0.10652 -26.25,0.10652 0,-4.33747 z m -328.705,1.95081 c -0.24924,-0.64951 -0.30508,-2.21635 -0.12408,-3.48187 0.27287,-1.90789 1.41359,-2.58387 6.67779,-3.95715 10.27393,-2.68019 9.60911,-0.15067 9.93974,-37.81902 l 0.28844,-32.8627 -2.66253,-2.09434 c -1.46439,-1.15189 -5.35001,-3.07425 -8.63472,-4.27192 -5.95992,-2.17309 -7.92037,-4.09865 -6.06346,-5.95556 0.53996,-0.53996 5.35825,-1.87581 10.70732,-2.96855 5.34906,-1.09274 13.1465,-3.07315 17.32763,-4.40091 4.18114,-1.32776 8.0191,-2.15636 8.52881,-1.84135 0.53032,0.32776 0.63457,3.30094 0.24372,6.95068 -0.91024,8.49963 0.24724,8.7911 9.89638,2.49207 11.37552,-7.42601 17.47858,-9.58312 27.07996,-9.57132 9.92705,0.0122 14.15969,2.00927 21.34518,10.07122 l 5.07212,5.69079 8.00242,-5.25374 c 10.30661,-6.76649 19.0324,-10.31 26.70178,-10.84351 15.99289,-1.11251 27.37457,7.83027 31.97994,25.1272 1.00727,3.78314 1.378,12.56053 1.38669,32.83181 0.007,15.21752 0.2914,28.39666 0.63305,29.28699 0.827,2.15512 5.14945,4.30226 11.32885,5.6275 4.54018,0.9737 5.04842,1.35228 5.03466,3.75016 -0.008,1.46693 -0.34592,3.11714 -0.75,3.66714 -0.45547,0.61994 -10.14115,1 -25.48469,1 l -24.75,0 0,-3.58605 c 0,-3.52835 0.0959,-3.61272 5.96131,-5.24344 4.06634,-1.13054 6.35758,-2.3747 7.20794,-3.91395 1.63357,-2.95695 2.36579,-40.37634 0.99995,-51.10175 -1.35168,-10.61418 -4.72209,-16.14702 -12.17407,-19.98485 -4.80662,-2.47546 -6.32133,-2.7755 -12.08925,-2.39468 -6.82131,0.45037 -15.53523,3.72795 -19.48529,7.32903 -2.0409,1.86059 -2.07134,2.48551 -1.6442,33.75149 0.49304,36.08942 0.21498,34.92052 8.60643,36.1789 6.1128,0.91667 7.54633,2.20649 6.90783,6.2153 l -0.51765,3.25 -25.3865,0 -25.3865,0 0,-3.88871 c 0,-3.70937 0.17294,-3.91921 3.75,-4.55008 7.66357,-1.3516 10.00476,-2.55495 11.36638,-5.84218 1.87635,-4.5299 1.92366,-50.37987 0.0585,-56.71903 -2.94773,-10.01868 -9.21394,-15.51438 -18.99331,-16.65783 -7.80874,-0.91303 -23.39524,5.45145 -26.2042,10.70005 -0.76242,1.42459 -1.01004,11.54536 -0.793,32.41125 0.29001,27.881 0.46582,30.50571 2.16928,32.3865 1.01953,1.12567 3.15703,2.29718 4.75,2.60335 9.75632,1.8752 9.03228,1.42739 8.70122,5.38158 l -0.30491,3.64187 -25.37592,0.0203 c -18.60272,0.0149 -25.49687,-0.29494 -25.82908,-1.16066 z"
         id="path8977"
         inkscape:connector-curvature="0" />
    </g>
  </g>
</svg>
