<?xml version="1.0" encoding="UTF-8" standalone="no"?>
<!-- Created with Inkscape (http://www.inkscape.org/) -->

<svg
   xmlns:dc="http://purl.org/dc/elements/1.1/"
   xmlns:cc="http://creativecommons.org/ns#"
   xmlns:rdf="http://www.w3.org/1999/02/22-rdf-syntax-ns#"
   xmlns:svg="http://www.w3.org/2000/svg"
   xmlns="http://www.w3.org/2000/svg"
   xmlns:sodipodi="http://sodipodi.sourceforge.net/DTD/sodipodi-0.dtd"
   xmlns:inkscape="http://www.inkscape.org/namespaces/inkscape"
   width="564.36792mm"
   height="563.46765mm"
   viewBox="0 0 1999.7289 1996.5389"
   id="svg7220"
   version="1.1"
   inkscape:version="0.91 r13725"
   sodipodi:docname="Python.svg">
  <defs
     id="defs7222" />
  <sodipodi:namedview
     id="base"
     pagecolor="#ffffff"
     bordercolor="#666666"
     borderopacity="1.0"
     inkscape:pageopacity="0.0"
     inkscape:pageshadow="2"
     inkscape:zoom="0.268"
     inkscape:cx="1783.4063"
     inkscape:cy="1071.27"
     inkscape:document-units="px"
     inkscape:current-layer="layer1"
     showgrid="false"
     fit-margin-top="0"
     fit-margin-left="0"
     fit-margin-right="0"
     fit-margin-bottom="0"
     inkscape:window-width="1366"
     inkscape:window-height="718"
     inkscape:window-x="0"
     inkscape:window-y="26"
     inkscape:window-maximized="1" />
  <metadata
     id="metadata7225">
    <rdf:RDF>
      <cc:Work
         rdf:about="">
        <dc:format>image/svg+xml</dc:format>
        <dc:type
           rdf:resource="http://purl.org/dc/dcmitype/StillImage" />
        <dc:title></dc:title>
      </cc:Work>
    </rdf:RDF>
  </metadata>
  <g
     inkscape:label="Layer 1"
     inkscape:groupmode="layer"
     id="layer1"
     transform="translate(1914.1206,392.90669)">
    <g
       id="g7781"
       transform="translate(-1022.3881,78.358209)">
      <path
         style="fill:#fed141"
         d="m 67.09174,1525.0317 c -39.024,-2.0421 -50.41252,-2.7827 -68.5,-4.454 -65.3397,-6.0376 -122.0121,-16.9737 -170,-32.8048 -60.95668,-20.1095 -106.93792,-46.4522 -141.54155,-81.0893 -30.0603,-30.0894 -48.84183,-63.9472 -56.57799,-101.9943 l -2.55351,-12.5584 0.12094,-247.5 c 0.1324,-270.97984 -0.0831,-260.59534 6.03931,-291.00004 18.53269,-92.0356 79.33695,-155.1004 176.5128,-183.0751 15.86916,-4.5683 38.21698,-9.148 53,-10.8612 5.5,-0.6373 11.125,-1.4378 12.5,-1.7787 1.375,-0.3409 124,-0.9061 272.5,-1.256 296.4018,-0.6982 273.7107,-0.2125 305.0481,-6.53 52.7206,-10.6282 95.554,-33.16923 129.486,-68.14184 40.4597,-41.70059 65.0016,-96.48729 75.64,-168.85716 1.6032,-10.90578 1.7928,-24.19604 2.0794,-145.75 l 0.3154,-133.75 90.4143,0 c 97.5343,0 102.0617,0.19896 124.0168,5.45006 24.6172,5.88779 51.5202,17.52424 73,31.57489 47.8607,31.30733 86.47816,79.97758 114.23726,143.97505 18.3106,42.21443 31.1035,88.89957 41.9257,153 l 2.7858,16.5 0.2997,136.90488 c 0.3348,152.90392 0.8345,139.71762 -6.8254,180.09512 -33.5229,176.7102 -126.17056,283.6304 -263.42306,304.00394 -10.0278,1.4886 -42.6637,1.6234 -369.25,1.5258 l -358.25,-0.107 0,34.5387 0,34.5386 242.9691,0 242.9691,0 0.299,27.75 c 0.1645,15.2625 0.4098,71.073 0.5451,124.0232 0.2367,92.6136 0.1707,96.643 -1.7381,106 -12.5317,61.4317 -63.5239,111.1944 -148.1386,144.5667 -62.6627,24.7145 -138.5068,38.9956 -242.9056,45.7382 -15.6356,1.0098 -123.14418,2.0478 -137,1.3227 z m 334.5663,-154.4518 c 34.9592,-6.192 62.2547,-31.5991 70.6261,-65.7397 2.931,-11.9536 2.8993,-30.3577 -0.072,-41.7093 -4.7878,-18.2914 -17.2292,-37.282 -31.3807,-47.8998 -45.0179,-33.7766 -106.926,-19.2116 -132.0998,31.0788 -1.9764,3.9485 -4.5385,10.4735 -5.6935,14.5 -2.7241,9.4972 -3.6517,27.1497 -1.9733,37.5541 5.712,35.4089 33.0907,64.0117 68.5425,71.6074 8.3084,1.7801 23.7779,2.0738 32.0507,0.6085 z m -1034.0663,-351.5111 c -84.75377,-12.886 -155.67089,-71.33864 -199.99357,-164.84244 -37.81033,-79.7652 -56.91963,-179.7907 -59.1465,-309.5955 -1.79774,-104.79135 9.56724,-194.14552 34.14595,-268.4634 13.37552,-40.44317 34.86405,-83.59262 55.71014,-111.86723 48.03584,-65.15345 113.13709,-104.81484 189.0599,-115.18024 10.61268,-1.4489 47.06289,-1.62655 369,-1.79842 l 357.22408,-0.19071 0.2631,-34.25 0.2632,-34.25 -243.48216,0 -243.48212,0 -0.28101,-119.75 c -0.15456,-65.8625 0.0838,-123.575 0.52957,-128.25 2.05926,-21.59408 10.09851,-42.51023 24.83009,-64.60179 8.84091,-13.25786 31.39775,-36.40531 46.08853,-47.29526 52.29015,-38.76154 128.9286,-65.34934 227.7708,-79.01941 86.96349,-12.02723 202.4724,-14.3786 296.5,-6.03575 130.8589,11.61082 229.6961,43.80742 294.2159,95.84196 12.02,9.69403 31.734,29.77062 40.1514,40.88993 12.4953,16.50614 23.5871,36.97328 29.9683,55.29895 3.9617,11.37725 7.8948,29.29451 8.8731,40.42137 0.4352,4.95 0.5398,119.7 0.2323,255 -0.6088,267.95376 -0.2006,249.01618 -6.018,279.16103 -15.199,78.75971 -64.1841,138.36602 -140.423,170.87027 -26.1962,11.1687 -55.7352,18.96227 -91.7339,24.20312 -10.1362,1.47567 -38.2938,1.70159 -280.7661,2.25267 l -269.5,0.6125 -15.49885,2.22695 c -53.09194,7.62851 -95.70305,24.81082 -130.50115,52.62266 -10.1055,8.0767 -26.51245,24.5643 -35.37695,35.5508 -33.20028,41.148 -54.2998,95.4221 -61.61582,158.4939 -1.26875,10.9379 -1.50723,33.6032 -1.50723,143.25 l 0,130.25614 -93.25,-0.097 c -73.45583,-0.076 -95.16043,-0.3873 -102.25,-1.4652 z m 490.59339,-1164.2913 c 30.93606,-8.08584 54.57158,-31.68747 63.1438,-63.05325 3.00087,-10.98019 2.95337,-32.35932 -0.0969,-43.59339 -8.25214,-30.39283 -30.24281,-52.85718 -60.84374,-62.15433 -7.72993,-2.34849 -10.55484,-2.68046 -23.29659,-2.73766 -10.79516,-0.0485 -16.11661,0.37632 -20.82709,1.66251 -16.46336,4.49528 -29.27476,11.63368 -40.51109,22.57241 -8.26107,8.04228 -13.66025,15.71363 -18.6779,26.53824 -5.98004,12.90077 -7.44419,20.00475 -7.44419,36.11883 0,16.17896 1.46115,23.213 7.54948,36.34352 12.36536,26.668 36.073,44.81002 65.57054,50.17715 7.62502,1.38739 26.84468,0.37089 35.43364,-1.87403 z"
         id="path7785"
         inkscape:connector-curvature="0" />
      <path
         style="fill:#3571a3"
         d="m -632.40826,1019.0688 c -84.75377,-12.886 -155.67089,-71.33864 -199.99357,-164.84244 -37.81033,-79.7652 -56.91963,-179.7907 -59.1465,-309.5955 -1.79774,-104.79135 9.56724,-194.14552 34.14595,-268.4634 13.37552,-40.44317 34.86405,-83.59262 55.71014,-111.86723 48.03584,-65.15345 113.13709,-104.81484 189.0599,-115.18024 10.61268,-1.4489 47.06289,-1.62655 369,-1.79842 l 357.22408,-0.19071 0.2631,-34.25 0.2632,-34.25 -243.48216,0 -243.48212,0 -0.28101,-119.75 c -0.15456,-65.8625 0.0838,-123.575 0.52957,-128.25 2.05926,-21.59408 10.09851,-42.51023 24.83009,-64.60179 8.84091,-13.25786 31.39775,-36.40531 46.08853,-47.29526 52.29015,-38.76154 128.9286,-65.34934 227.7708,-79.01941 86.96349,-12.02723 202.4724,-14.3786 296.5,-6.03575 130.8589,11.61082 229.6961,43.80742 294.2159,95.84196 12.02,9.69403 31.734,29.77062 40.1514,40.88993 12.4953,16.50614 23.5871,36.97328 29.9683,55.29895 3.9617,11.37725 7.8948,29.29451 8.8731,40.42137 0.4352,4.95 0.5398,119.7 0.2323,255 -0.6088,267.95376 -0.2006,249.01618 -6.018,279.16103 -15.199,78.75971 -64.1841,138.36602 -140.423,170.87027 -26.1962,11.1687 -55.7352,18.96227 -91.7339,24.20312 -10.1362,1.47567 -38.2938,1.70159 -280.7661,2.25267 l -269.5,0.6125 -15.49885,2.22695 c -53.09194,7.62851 -95.70305,24.81082 -130.50115,52.62266 -10.1055,8.0767 -26.51245,24.5643 -35.37695,35.5508 -33.20028,41.148 -54.2998,95.4221 -61.61582,158.4939 -1.26875,10.9379 -1.50723,33.6032 -1.50723,143.25 l 0,130.25614 -93.25,-0.097 c -73.45583,-0.076 -95.16043,-0.3873 -102.25,-1.4652 z m 490.59339,-1164.2913 c 30.93606,-8.08584 54.57158,-31.68747 63.1438,-63.05325 3.00087,-10.98019 2.95337,-32.35932 -0.0969,-43.59339 -8.25214,-30.39283 -30.24281,-52.85718 -60.84374,-62.15433 -7.72993,-2.34849 -10.55484,-2.68046 -23.29659,-2.73766 -10.79516,-0.0485 -16.11661,0.37632 -20.82709,1.66251 -16.46336,4.49528 -29.27476,11.63368 -40.51109,22.57241 -8.26107,8.04228 -13.66025,15.71363 -18.6779,26.53824 -5.98004,12.90077 -7.44419,20.00475 -7.44419,36.11883 0,16.17896 1.46115,23.213 7.54948,36.34352 12.36536,26.668 36.073,44.81002 65.57054,50.17715 7.62502,1.38739 26.84468,0.37089 35.43364,-1.87403 z"
         id="path7783"
         inkscape:connector-curvature="0" />
    </g>
  </g>
</svg>
