<?xml version="1.0" encoding="UTF-8" standalone="no"?>
<!-- Created with Inkscape (http://www.inkscape.org/) -->

<svg
   xmlns:dc="http://purl.org/dc/elements/1.1/"
   xmlns:cc="http://creativecommons.org/ns#"
   xmlns:rdf="http://www.w3.org/1999/02/22-rdf-syntax-ns#"
   xmlns:svg="http://www.w3.org/2000/svg"
   xmlns="http://www.w3.org/2000/svg"
   xmlns:sodipodi="http://sodipodi.sourceforge.net/DTD/sodipodi-0.dtd"
   xmlns:inkscape="http://www.inkscape.org/namespaces/inkscape"
   id="svg6645"
   version="1.1"
   inkscape:version="0.91 r13725"
   width="318.81927"
   height="319.11002"
   viewBox="0 0 318.81927 319.11002"
   sodipodi:docname="Sass.svg">
  <metadata
     id="metadata6651">
    <rdf:RDF>
      <cc:Work
         rdf:about="">
        <dc:format>image/svg+xml</dc:format>
        <dc:type
           rdf:resource="http://purl.org/dc/dcmitype/StillImage" />
        <dc:title></dc:title>
      </cc:Work>
    </rdf:RDF>
  </metadata>
  <defs
     id="defs6649" />
  <sodipodi:namedview
     pagecolor="#ffffff"
     bordercolor="#666666"
     borderopacity="1"
     objecttolerance="10"
     gridtolerance="10"
     guidetolerance="10"
     inkscape:pageopacity="0"
     inkscape:pageshadow="2"
     inkscape:window-width="1366"
     inkscape:window-height="718"
     id="namedview6647"
     showgrid="false"
     fit-margin-top="0"
     fit-margin-left="0"
     fit-margin-right="0"
     fit-margin-bottom="0"
     inkscape:zoom="0.7375"
     inkscape:cx="159.41432"
     inkscape:cy="158.33976"
     inkscape:window-x="0"
     inkscape:window-y="26"
     inkscape:window-maximized="1"
     inkscape:current-layer="svg6645" />
  <g
     id="g7195"
     transform="translate(-0.58568018,-0.58568018)">
    <path
       style="fill:#d98eb4"
       d="M 139,318.97924 C 78.536039,310.59381 28.597751,269.68287 8.5952347,212.14776 1.931651,192.98067 0.59504384,184.26825 0.59504384,160 c 0,-18.41229 0.31603476,-22.95736 2.20057866,-31.64776 C 16.706545,64.203314 64.203314,16.706545 128.35224,2.7956225 137.04264,0.9110786 141.58771,0.59504384 160,0.59504384 c 18.41229,0 22.95736,0.31603476 31.64776,2.20057866 64.14893,13.9109225 111.64569,61.4076915 125.55662,125.5566175 1.88454,8.6904 2.20058,13.23547 2.20058,31.64776 0,18.41229 -0.31604,22.95736 -2.20058,31.64776 -13.86138,63.92047 -61.67339,111.87252 -125.04581,125.41208 -11.0138,2.3531 -41.97139,3.47089 -53.15857,1.9194 z m -39,-39.03749 c 19.05308,-3.05768 36.44565,-19.1981 41.46881,-38.4833 1.88909,-7.25272 1.98377,-21.27784 0.19032,-28.19178 l -1.34087,-5.1692 4.89009,-1.04873 c 16.08009,-3.44857 37.82024,2.32536 46.37164,12.31575 7.73847,9.04066 7.04508,19.82445 -1.72802,26.87471 -6.45693,5.18893 -3.86744,6.71803 3.78359,2.23422 6.44387,-3.77635 9.87365,-10.22174 9.83027,-18.47342 -0.076,-14.45736 -10.74126,-26.87186 -27.59073,-32.116 -7.7203,-2.40283 -27.64483,-2.61593 -36.20153,-0.38719 l -5.74662,1.4968 -3.52485,-3.52485 c -1.93867,-1.93867 -9.90973,-8.6055 -17.71348,-14.81518 C 88.74952,161.60448 83.00793,153.73345 83.033504,140 83.056916,127.42816 87.892658,118.02844 100.96992,105.13519 115.11875,91.185451 147.55852,72.36981 170,65.09652 c 32.14854,-10.419354 61.37814,-8.279738 71.40421,5.22681 1.70053,2.290856 2.09579,4.271136 2.09579,10.5 0,6.519024 -0.46731,8.656873 -3.09886,14.17667 -6.66225,13.97437 -18.45213,24.99682 -35.90114,33.56424 -13.5716,6.66362 -23.84262,9.43447 -37.57678,10.1372 -14.41405,0.73753 -23.35006,-1.88867 -30.21218,-8.87905 -2.40228,-2.44718 -3.71183,-2.29613 -3.7073,0.42761 0.009,5.50448 7.75939,12.98404 17.82053,17.19812 3.96359,1.66014 7.03648,1.95767 20.17573,1.95355 13.60893,-0.004 16.73045,-0.33096 25.58525,-2.67772 20.51472,-5.43693 33.58719,-12.79572 45.72246,-25.73821 C 255.04353,107.40275 261.24503,93.73197 261.35377,79 261.42678,69.108246 259.09231,62.431216 253.31375,56.004071 245.81461,47.663226 235.78725,42.820931 221,40.399499 199.41618,36.86512 177.63194,40.038823 151.27108,50.558168 100.22065,70.929928 64.380763,102.79098 58.808156,132.75614 c -1.014863,5.45715 -0.901706,6.81605 1.066957,12.81301 5.172169,15.75551 15.611789,26.29391 49.819427,50.29082 5.607,3.93336 10.47302,7.60214 10.81339,8.15285 0.34036,0.55072 -0.19719,1.30471 -1.19455,1.67553 -4.73797,1.76161 -23.761526,13.83488 -30.970992,19.6557 C 74.90053,236.19682 69,246.25984 69,258.33141 c 0,7.18117 3.610234,15.69847 8.001508,18.87724 4.581263,3.3163 13.0749,4.32567 22.998492,2.7331 z M 93,264.32246 C 87.031111,262.00082 86.300893,255.09493 90.978742,245.20683 94.191532,238.41559 101.01114,230.95212 110,224.38971 116.2557,219.82267 126.22689,214 127.79213,214 c 0.57678,0 1.36563,2.95958 1.753,6.57685 1.3252,12.3745 -4.06506,26.23755 -13.42398,34.52473 -7.15948,6.33961 -18.698058,10.94128 -23.12115,9.22088 z"
       id="path7199"
       inkscape:connector-curvature="0" />
    <path
       style="fill:#cc6599"
       d="m 149.5,319.42849 c -1.65,-0.22666 -7.05,-0.90968 -12,-1.51783 -32.80346,-4.03019 -66.767543,-21.195 -91.173655,-46.07747 C 34.307173,259.57943 24.810561,246.29381 17.496013,231.5 5.4266103,207.0894 0.58568018,186.62106 0.58568018,160 c 0,-26.62069 4.84079042,-47.08872 16.91010682,-71.5 C 32.490064,58.172724 58.171398,32.491472 88.5,17.496013 112.9106,5.4266103 133.37894,0.58568018 160,0.58568018 c 26.62106,0 47.0894,4.84093012 71.5,16.91033282 46.22269,22.854021 79.06613,68.365504 86.60107,120.003987 1.68414,11.54176 1.68414,33.45824 0,45 -2.5778,17.66615 -7.04726,31.70766 -15.59686,49 -14.99427,30.32728 -40.67561,56.00853 -71.00421,71.00399 -16.87947,8.34576 -31.57467,13.05657 -48.24382,15.46543 -8.15214,1.17806 -29.18394,2.08713 -33.75618,1.45907 z m -42.25398,-40.57726 c 15.54031,-5.3394 28.10597,-17.79256 33.76643,-33.46415 2.86596,-7.93471 3.69556,-23.8013 1.64104,-31.38573 -0.81923,-3.02426 -1.266,-5.72218 -0.9928,-5.99537 0.27319,-0.27319 5.52379,-0.65459 11.66801,-0.84755 23.83459,-0.74852 39.7459,7.90914 43.09769,23.4503 1.00279,4.64964 -1.90007,10.78577 -7.27664,15.38153 -3.32515,2.84225 -4.31081,4.24868 -3.52694,5.03255 3.20825,3.20825 15.53982,-6.21426 17.47078,-13.34936 1.56795,-5.79369 0.61414,-15.36585 -2.05182,-20.59157 -2.99043,-5.86172 -10.64287,-13.33931 -16.89192,-16.50595 -10.91943,-5.53329 -27.79997,-7.1115 -42.83888,-4.00513 l -7.60471,1.57079 -5.10313,-4.93874 C 125.79641,190.48654 118.1,184.00793 111.5,178.80594 96.400796,166.90504 89.829397,160.19713 86.312226,153.09492 c -2.378873,-4.80365 -2.758156,-6.74631 -2.681849,-13.73623 0.07964,-7.295 0.478067,-8.92898 3.832752,-15.71833 C 95.112678,108.15887 112.70556,93.325923 141.5,78.080678 c 30.8086,-16.31164 62.5582,-22.816732 83.30366,-17.067869 13.73999,3.807543 18.49046,8.908077 18.49046,19.85301 0,21.660301 -26.17646,46.123251 -58.29412,54.478191 -21.75919,5.66034 -36.79549,3.92053 -47.52353,-5.49881 -5.76497,-5.06172 -7.33546,-0.90777 -2.57271,6.80481 2.49502,4.04032 9.71007,8.99438 16.92839,11.62351 8.13958,2.96469 27.89806,2.88796 41.16785,-0.15988 24.22812,-5.56477 40.28347,-14.81186 53.46618,-30.79387 10.9965,-13.33157 16.04656,-26.82033 15.32306,-40.928012 C 260.86846,58.437443 249.72767,46.976262 227.36595,40.978504 217.17819,38.24599 193.67522,37.991143 181.5,40.48117 160.55739,44.764268 127.82813,58.899154 107.5,72.439784 70.636104,96.994934 51.832496,126.747 59.846863,147.8391 c 5.254759,13.8294 17.868563,26.66243 43.359107,44.11267 5.88828,4.03098 12.10114,8.50337 13.80636,9.93864 l 3.10041,2.60959 -6.30637,3.37502 c -11.00579,5.89005 -25.388844,15.98536 -32.090029,22.52366 -14.975822,14.6118 -17.841828,34.47583 -6.596676,45.72099 4.280269,4.28026 5.289536,4.55984 17.126353,4.74415 6.611944,0.10295 10.272022,-0.38813 15.000002,-2.01259 z M 90.038955,261.81144 c -2.565351,-2.75358 -2.579233,-6.2994 -0.05099,-13.02393 3.973118,-10.56755 13.425365,-20.0994 29.746335,-29.99682 7.55924,-4.5841 7.78299,-4.65056 8.41602,-2.5 1.14086,3.8758 0.87044,14.04288 -0.51092,19.20931 -2.96699,11.09689 -13.0088,22.4504 -23.36024,26.41168 -7.145244,2.73433 -11.628804,2.70277 -14.240203,-0.10024 z"
       id="path7197"
       inkscape:connector-curvature="0" />
  </g>
</svg>
